<?xml version="1.0" encoding="UTF-8" standalone="no"?>
<!DOCTYPE svg PUBLIC "-//W3C//DTD SVG 1.1//EN" "http://www.w3.org/Graphics/SVG/1.1/DTD/svg11.dtd">
<svg xmlns="http://www.w3.org/2000/svg" xmlns:xlink="http://www.w3.org/1999/xlink" version="1.1" width="1653.6666pt" height="2338.6668pt" viewBox="140 500 1500 1500">
<g enable-background="new">
<path transform="matrix(2.0833333,0,0,2.0833333,0,0)" d="M .16 .64 L 793.76 .64 L 793.76 1122.56 L .16 1122.56 Z " fill="#ffffff"/>
<clipPath id="cp0">
<path transform="matrix(2.0833333,0,0,2.0833333,0,0)" d="M .16 0 L .16 1122.56 L 793.76 1122.56 L 793.76 0 Z " fill-rule="evenodd"/>
</clipPath>
<g clip-path="url(#cp0)">
<path transform="matrix(2.0833333,0,0,2.0833333,1286.125,1667.25)" stroke-width="1.923" stroke-linecap="butt" stroke-miterlimit="4" stroke-linejoin="miter" fill="none" stroke="#5e5e5e" d="M 0 0 L 0 -31.55 M 0 -47.41 L 0 -63.27 L 0 -63.75 L .16 -64.39 L .32 -64.87 L .64 -65.35 L 1.12 -65.83 L 1.44 -66.15 L 1.93 -66.47 L 2.57 -66.63 L 3.05 -66.79 L 19.07 -66.79 M 35.1 -66.79 L 50.97 -66.79 L 51.61 -66.79 L 52.09 -66.63 L 52.73 -66.47 L 53.21 -66.15 L 53.53 -65.83 L 54.01 -65.35 L 54.17 -64.87 L 54.49 -64.39 L 54.65 -63.75 L 54.65 -48.05 M 54.65 -32.19 L 54.65 -.64 M 54.65 15.22 L 54.65 31.08 L 54.65 31.56 L 54.49 32.2 L 54.17 32.68 L 54.01 33.16 L 53.53 33.64 L 53.21 33.96 L 52.73 34.28 L 52.09 34.44 L 51.61 34.6 L 35.58 34.6 M 19.55 34.6 L 3.53 34.6 L 3.05 34.6 L 2.57 34.44 L 1.93 34.28 L 1.44 33.96 L 1.12 33.64 L .64 33.16 L .32 32.68 L .16 32.2 L 0 31.56 L 0 15.86 "/>
<path transform="matrix(2.0833333,0,0,2.0833333,1006.99996,1702.9583)" stroke-width="1.923" stroke-linecap="butt" stroke-miterlimit="4" stroke-linejoin="miter" fill="none" stroke="#5e5e5e" d="M 0 0 L 0 -37 M 0 -55.58 L 0 -92.74 M 0 -111.32 L 0 -148.49 M 0 -166.91 L 0 -204.07 M 0 -222.65 L -.16 -259.81 M -.16 -278.39 L -.16 -315.4 M -.16 -333.98 L -.16 -352.56 L 0 -353.04 L .16 -353.68 L .32 -354.16 L .64 -354.64 L .96 -355.12 L 1.44 -355.44 L 1.92 -355.76 L 2.4 -355.92 L 2.89 -356.08 L 21.32 -356.08 M 39.59 -356.08 L 76.13 -356.08 M 94.4 -356.08 L 131.1 -356.08 M 149.37 -356.08 L 185.91 -356.08 M 204.18 -356.08 L 240.88 -356.08 M 259.15 -356.08 L 277.42 -356.24 L 278.06 -356.08 L 278.54 -355.92 L 279.18 -355.76 L 279.66 -355.44 L 279.98 -355.12 L 280.3 -354.64 L 280.62 -354.16 L 280.95 -353.68 L 281.11 -353.04 L 281.11 -334.62 M 281.11 -316.04 L 281.11 -278.87 M 281.11 -260.29 L 281.11 -223.13 M 281.11 -204.71 L 281.11 -167.55 M 281.11 -148.97 L 281.11 -111.8 M 281.11 -93.22 L 281.11 -56.22 M 281.11 -37.64 L 281.11 -.48 M 281.11 17.94 L 281.11 36.53 L 281.11 37.17 L 280.95 37.65 L 280.62 38.13 L 280.3 38.61 L 279.98 39.09 L 279.66 39.41 L 279.18 39.73 L 278.54 40.05 L 278.06 40.05 L 259.63 40.05 M 241.36 40.05 L 204.82 40.21 M 186.55 40.21 L 149.85 40.21 M 131.58 40.21 L 95.04 40.21 M 76.77 40.21 L 40.07 40.21 M 21.8 40.21 L 3.53 40.21 L 2.89 40.21 L 2.4 40.05 L 1.92 39.73 L 1.44 39.41 L .96 39.09 L .64 38.77 L .32 38.13 L .16 37.65 L 0 37.17 L 0 18.59 "/>
<path transform="matrix(2.0833333,0,0,2.0833333,933.5417,1284.8125)" d="M 0 0 C 4.01 0 7.21 16.18 7.21 36.05 C 7.21 55.91 4.01 72.09 0 72.09 L -57.69 72.09 C -61.7 72.09 -64.91 55.91 -64.91 36.05 C -64.91 16.18 -61.7 0 -57.69 0 L 0 0 Z " fill="#ffffff"/>
<path transform="matrix(2.0833333,0,0,2.0833333,933.5417,1284.8125)" stroke-width="1.923" stroke-linecap="butt" stroke-miterlimit="4" stroke-linejoin="miter" fill="none" stroke="#5e5e5e" d="M 0 0 C 4.01 0 7.21 16.18 7.21 36.05 C 7.21 55.91 4.01 72.09 0 72.09 L -57.69 72.09 C -61.7 72.09 -64.91 55.91 -64.91 36.05 C -64.91 16.18 -61.7 0 -57.69 0 L 0 0 Z "/>
<path transform="matrix(2.0833333,0,0,2.0833333,0,0)" stroke-width="1.923" stroke-linecap="butt" stroke-miterlimit="4" stroke-linejoin="miter" fill="none" stroke="#5e5e5e" d="M 390.41 616.71 C 394.41 616.71 397.62 632.89 397.62 652.76 C 397.62 672.62 394.41 688.8 390.41 688.8 "/>
<path transform="matrix(2.0833333,0,0,2.0833333,874.7916,1405.2915)" d="M 0 0 C -.33 -4.32 .32 -8.01 4.48 -7.85 C 7.37 -7.69 9.13 -6.25 9.13 -3.36 L 9.13 0 L 4.64 0 L 0 0 Z M 8.17 -1.12 C 8.49 -4.48 7.53 -6.57 4.48 -6.57 C 1.44 -6.57 .8 -4.32 .96 -1.12 L 4.64 -1.12 L 8.17 -1.12 Z " fill="#333333"/>
<path transform="matrix(2.0833333,0,0,2.0833333,891.1458,1376.9375)" d="M 0 0 C .8 .48 1.6 1.12 1.44 2.4 C 1.44 3.84 .64 4.64 -.64 4.64 C -3.05 4.64 -3.05 2.24 -3.05 0 C -4.33 -.16 -4.97 .32 -4.97 1.44 C -4.97 2.4 -4.65 3.04 -3.85 3.04 L -4.01 4.32 C -5.29 4.16 -5.93 3.04 -5.93 1.44 C -5.93 -.16 -5.13 -1.29 -3.53 -1.29 L -1.92 -1.29 L -.48 -1.29 C .32 -1.13 .8 -1.45 .48 -2.25 L .96 -2.25 L 1.28 -2.25 C 1.6 -1.13 1.28 0 0 0 Z M -.64 3.36 C .16 3.36 .64 2.88 .64 2.24 C .48 .64 -.48 -.16 -2.09 0 C -2.09 1.6 -2.41 3.36 -.64 3.36 Z " fill="#333333"/>
<path transform="matrix(2.0833333,0,0,2.0833333,890.14578,1367.5834)" d="M 0 0 C .96 .16 1.12 -.64 .96 -1.28 L 1.28 -1.28 L 1.76 -1.28 C 2.08 -.16 1.92 1.28 .32 1.28 L -2.09 1.28 L -4.33 1.28 L -4.33 2.08 L -4.81 2.08 L -5.29 2.08 L -5.29 1.12 L -6.89 .8 L -6.89 0 L -6.09 0 L -5.29 0 L -5.29 -1.28 L -4.81 -1.28 L -4.33 -1.28 L -4.33 0 L -2.09 0 L 0 0 Z " fill="#333333"/>
<path transform="matrix(2.0833333,0,0,2.0833333,891.1458,1353.5625)" d="M 0 0 C .8 .64 1.6 1.12 1.44 2.57 C 1.44 3.85 .64 4.65 -.64 4.65 C -3.05 4.81 -3.05 2.41 -3.05 0 C -4.33 0 -4.97 .48 -4.97 1.6 C -4.97 2.41 -4.65 3.05 -3.85 3.21 L -4.01 4.33 C -5.29 4.17 -5.93 3.21 -5.93 1.6 C -5.93 -.16 -5.13 -1.12 -3.53 -1.12 L -1.92 -1.12 L -.48 -1.12 C .32 -1.12 .8 -1.44 .48 -2.08 L .96 -2.08 L 1.28 -2.08 C 1.6 -.96 1.28 .16 0 0 Z M -.64 3.53 C .16 3.53 .64 3.05 .64 2.24 C .48 .8 -.48 0 -2.09 0 C -2.09 1.6 -2.41 3.53 -.64 3.53 Z " fill="#333333"/>
<path transform="matrix(2.0833333,0,0,2.0833333,882.7916,1338.5416)" d="M 0 0 C -1.28 .16 -1.44 3.21 0 3.21 C 2.09 2.73 .48 -.96 3.37 -1.12 C 6.25 -1.28 6.09 4.49 3.69 4.65 L 3.53 3.69 C 4.81 3.53 5.13 0 3.53 0 C 1.44 .32 2.89 4.17 .16 4.33 C -1.92 4.49 -2.24 1.29 -1.44 -.16 C -1.12 -.64 -.64 -.96 -.16 -.96 L 0 0 Z " fill="#333333"/>
<path transform="matrix(2.0833333,0,0,2.0833333,878.7916,1327.5415)" d="M 0 0 C 0 -2.4 1.6 -3.21 4.01 -3.21 L 4.01 1.92 C 5.45 1.92 6.41 1.28 6.57 -.16 C 6.57 -1.12 6.09 -1.76 5.45 -1.92 L 5.77 -3.05 C 6.73 -2.56 7.37 -1.6 7.37 -.16 C 7.37 2.08 6.09 3.2 3.68 3.04 C 1.44 3.04 0 2.08 0 0 Z M 3.04 -1.92 C .8 -2.24 .16 .8 2.08 1.6 C 2.24 1.76 2.72 1.92 3.04 1.92 L 3.04 -1.92 Z " fill="#333333"/>
<path transform="matrix(2.0833333,0,0,2.0833333,890.14578,1315.1874)" d="M 0 0 C .96 0 1.12 -.64 .96 -1.44 L 1.28 -1.44 L 1.76 -1.44 C 2.08 -.16 1.92 1.12 .32 1.12 L -2.09 1.12 L -4.33 1.12 L -4.33 1.92 L -4.81 1.92 L -5.29 1.92 L -5.29 1.12 L -6.89 .8 L -6.89 0 L -6.09 0 L -5.29 0 L -5.29 -1.28 L -4.81 -1.28 L -4.33 -1.28 L -4.33 0 L -2.09 0 L 0 0 Z " fill="#333333"/>
<path transform="matrix(2.0833333,0,0,2.0833333,1237.0416,1284.8125)" d="M 0 0 C 3.85 0 7.22 16.18 7.22 36.05 C 7.22 55.91 3.85 72.09 0 72.09 L -57.69 72.09 C -61.7 72.09 -64.9 55.91 -64.9 36.05 C -64.9 16.18 -61.7 0 -57.69 0 L 0 0 Z " fill="#ffffff"/>
<path transform="matrix(2.0833333,0,0,2.0833333,1237.0416,1284.8125)" stroke-width="1.923" stroke-linecap="butt" stroke-miterlimit="4" stroke-linejoin="miter" fill="none" stroke="#5e5e5e" d="M 0 0 C 3.85 0 7.22 16.18 7.22 36.05 C 7.22 55.91 3.85 72.09 0 72.09 L -57.69 72.09 C -61.7 72.09 -64.9 55.91 -64.9 36.05 C -64.9 16.18 -61.7 0 -57.69 0 L 0 0 Z "/>
<path transform="matrix(2.0833333,0,0,2.0833333,0,0)" stroke-width="1.923" stroke-linecap="butt" stroke-miterlimit="4" stroke-linejoin="miter" fill="none" stroke="#5e5e5e" d="M 536.09 616.71 C 539.93 616.71 543.3 632.89 543.3 652.76 C 543.3 672.62 539.93 688.8 536.09 688.8 "/>
<path transform="matrix(2.0833333,0,0,2.0833333,1163.5834,1399.6249)" d="M 0 0 L 4.01 0 L 8.18 0 L 8.18 1.28 L 4.01 1.28 L 0 1.28 L 0 4.32 L -.64 4.32 L -1.12 4.32 L -1.12 -3.21 L -.64 -3.21 L 0 -3.21 L 0 0 Z " fill="#333333"/>
<path transform="matrix(2.0833333,0,0,2.0833333,1167.9374,1384.6041)" d="M 0 0 C -.64 2.88 3.36 1.92 6.09 2.08 L 6.09 3.36 L -.96 3.36 L -.96 2.24 C -.64 2.24 0 2.24 .48 2.24 C -.64 1.92 -1.44 1.28 -1.12 0 L -.64 0 L 0 0 Z " fill="#333333"/>
<path transform="matrix(2.0833333,0,0,2.0833333,1177.625,1373.2499)" d="M 0 0 C .8 .64 1.6 1.28 1.44 2.57 C 1.44 3.85 .8 4.81 -.65 4.81 C -3.05 4.81 -2.89 2.41 -2.89 .16 C -4.17 0 -4.97 .48 -4.97 1.61 C -4.97 2.57 -4.65 3.21 -3.85 3.21 L -3.85 4.33 C -5.29 4.17 -5.77 3.21 -5.77 1.61 C -5.77 -.16 -5.13 -1.12 -3.53 -1.12 L -1.93 -1.12 L -.48 -1.12 C .32 -1.12 .8 -1.28 .64 -2.08 L .96 -2.08 L 1.28 -2.08 C 1.6 -.96 1.28 .16 0 0 Z M -.65 3.53 C .16 3.53 .64 3.05 .64 2.41 C .48 .8 -.48 0 -2.09 .16 C -2.09 1.77 -2.25 3.53 -.65 3.53 Z " fill="#333333"/>
<path transform="matrix(2.0833333,0,0,2.0833333,1162.5833,1366.9166)" d="M 0 0 L -.48 0 L -1.12 0 L -1.12 -1.12 L -.48 -1.12 L 0 -1.12 L 0 0 Z M 8.66 0 L 5.13 0 L 1.61 0 L 1.61 -1.12 L 5.13 -1.12 L 8.66 -1.12 L 8.66 0 Z " fill="#333333"/>
<path transform="matrix(2.0833333,0,0,2.0833333,1165.6041,1353.5625)" d="M 0 0 C -.16 -3.2 4.16 -1.92 7.21 -2.08 L 7.21 -.96 L 4.96 -.96 L 2.72 -.96 C 1.44 -.96 .8 -.64 .8 .48 C .96 3.21 4.64 2.08 7.21 2.24 L 7.21 3.53 L .16 3.53 L .16 2.41 C .48 2.41 .96 2.41 1.28 2.41 C .48 1.92 0 1.28 0 0 Z " fill="#333333"/>
<path transform="matrix(2.0833333,0,0,2.0833333,1162.5833,1345.5624)" d="M 0 0 L -.48 0 L -1.12 0 L -1.12 -1.28 L -.48 -1.28 L 0 -1.28 L 0 0 Z M 8.66 0 L 5.13 0 L 1.61 0 L 1.61 -1.28 L 5.13 -1.28 L 8.66 -1.28 L 8.66 0 Z " fill="#333333"/>
<path transform="matrix(2.0833333,0,0,2.0833333,1165.6041,1332.2084)" d="M 0 0 C -.16 -3.36 4.16 -1.92 7.21 -2.24 L 7.21 -1.12 L 4.96 -1.12 L 2.72 -1.12 C 1.44 -1.12 .8 -.8 .8 .32 C .96 3.04 4.64 2.08 7.21 2.24 L 7.21 3.36 L .16 3.36 L .16 2.24 C .48 2.24 .96 2.4 1.28 2.24 C .48 1.76 0 1.12 0 0 Z " fill="#333333"/>
<path transform="matrix(2.0833333,0,0,2.0833333,1165.9375,1312.1874)" d="M 0 0 C 4.48 .32 10.73 -1.6 9.61 4 C 9.45 4.81 8.81 5.45 8.01 5.61 L 7.85 4.48 C 9.61 3.84 8.97 .8 6.73 1.12 L 6.25 1.12 L 5.61 1.12 C 6.41 1.6 7.05 2.24 7.05 3.36 C 7.05 5.45 5.45 5.93 3.52 5.93 C 1.44 5.93 -.16 5.29 -.16 3.36 C -.16 2.24 .48 1.6 1.12 1.12 C .8 1.12 .32 1.12 0 1.12 L 0 0 Z M 6.09 3.04 C 6.09 1.76 4.96 1.12 3.52 1.12 C 1.92 1.12 .64 1.76 .64 3.04 C .64 4.48 1.92 4.81 3.52 4.81 C 4.96 4.81 6.09 4.48 6.09 3.04 Z " fill="#333333"/>
<path transform="matrix(2.0833333,0,0,2.0833333,1199.3125,1366.2499)" d="M 0 0 C -1.76 .32 -2.08 4.64 0 4.64 C 2.89 4.16 .48 -1.12 4.49 -1.44 C 7.38 -1.44 7.7 3.04 6.41 5.13 C 6.09 5.77 5.45 6.09 4.81 6.41 L 4.49 5.13 C 6.57 4.97 6.89 -.16 4.49 -.16 C 1.61 -.16 4.01 5.61 .16 5.93 C -2.88 6.09 -3.04 .48 -1.12 -.8 C -.96 -.96 -.64 -.96 -.16 -1.12 L 0 0 Z " fill="#333333"/>
<path transform="matrix(2.0833333,0,0,2.0833333,1198.9791,1354.5625)" d="M 0 0 C 0 -2.4 1.45 -3.2 3.85 -3.2 L 3.85 1.76 C 5.29 1.76 6.41 1.28 6.41 -.16 C 6.41 -1.12 5.93 -1.76 5.29 -1.92 L 5.61 -3.04 C 6.57 -2.56 7.21 -1.6 7.21 -.16 C 7.21 2.09 5.93 3.21 3.53 3.05 C 1.28 3.05 0 2.09 0 0 Z M 2.89 -1.92 C .64 -2.24 .16 .8 1.93 1.6 C 2.09 1.76 2.57 1.76 2.89 1.76 L 2.89 -1.92 Z " fill="#333333"/>
<path transform="matrix(2.0833333,0,0,2.0833333,1210.3334,1342.2291)" d="M 0 0 C .8 0 .96 -.64 .8 -1.45 L 1.12 -1.45 L 1.6 -1.45 C 2.09 -.16 1.76 1.12 .16 1.12 L -2.08 1.12 L -4.49 1.12 L -4.49 1.92 L -4.97 1.92 L -5.29 1.92 L -5.29 1.12 L -6.89 .8 L -6.89 0 L -6.09 0 L -5.29 0 L -5.29 -1.29 L -4.97 -1.29 L -4.49 -1.29 L -4.49 0 L -2.24 0 L 0 0 Z " fill="#333333"/>
<path transform="matrix(2.0833333,0,0,2.0833333,1237.0416,1031.2084)" d="M 0 0 C 3.85 0 7.22 16.18 7.22 36.05 C 7.22 55.91 3.85 72.09 0 72.09 L -57.69 72.09 C -61.7 72.09 -64.9 55.91 -64.9 36.05 C -64.9 16.18 -61.7 0 -57.69 0 L 0 0 Z " fill="#ffffff"/>
<path transform="matrix(2.0833333,0,0,2.0833333,1237.0416,1031.2084)" stroke-width="1.923" stroke-linecap="butt" stroke-miterlimit="4" stroke-linejoin="miter" fill="none" stroke="#5e5e5e" d="M 0 0 C 3.85 0 7.22 16.18 7.22 36.05 C 7.22 55.91 3.85 72.09 0 72.09 L -57.69 72.09 C -61.7 72.09 -64.9 55.91 -64.9 36.05 C -64.9 16.18 -61.7 0 -57.69 0 L 0 0 Z "/>
<path transform="matrix(2.0833333,0,0,2.0833333,0,0)" stroke-width="1.923" stroke-linecap="butt" stroke-miterlimit="4" stroke-linejoin="miter" fill="none" stroke="#5e5e5e" d="M 536.09 494.98 C 539.93 494.98 543.3 511.15 543.3 531.02 C 543.3 550.88 539.93 567.06 536.09 567.06 "/>
<path transform="matrix(2.0833333,0,0,2.0833333,1180.2915,1146.6666)" d="M 0 0 L 4 0 L 8.17 0 L 8.17 1.28 L 4 1.28 L 0 1.28 L 0 4.32 L -.48 4.32 L -.96 4.32 L -.96 -3.2 L -.48 -3.2 L 0 -3.2 L 0 0 Z " fill="#333333"/>
<path transform="matrix(2.0833333,0,0,2.0833333,1182.2916,1134.979)" d="M 0 0 C 0 -2.4 1.6 -3.2 4.01 -3.2 L 4.01 1.76 C 5.45 1.76 6.41 1.28 6.41 -.16 C 6.57 -1.12 6.09 -1.76 5.45 -1.92 L 5.61 -3.04 C 6.73 -2.56 7.37 -1.6 7.37 -.16 C 7.37 1.92 5.93 3.05 3.69 3.05 C 1.44 3.05 0 2.08 0 0 Z M 3.04 -2.08 C .8 -2.24 .16 .8 1.92 1.6 C 2.24 1.76 2.56 1.76 3.04 1.76 L 3.04 -2.08 Z " fill="#333333"/>
<path transform="matrix(2.0833333,0,0,2.0833333,1186.2916,1116.6249)" d="M 0 0 C -1.28 .16 -1.44 3.21 0 3.21 C 1.93 2.73 .48 -.96 3.37 -1.12 C 6.25 -1.28 6.09 4.33 3.53 4.65 L 3.37 3.69 C 4.81 3.53 5.13 0 3.37 0 C 1.28 .32 2.89 4.17 .16 4.33 C -2.08 4.49 -2.24 1.28 -1.44 -.16 C -1.28 -.64 -.8 -.96 -.16 -1.12 L 0 0 Z " fill="#333333"/>
<path transform="matrix(2.0833333,0,0,2.0833333,1193.6459,1108.625)" d="M 0 0 C .96 .16 1.12 -.64 .8 -1.44 L 1.28 -1.44 L 1.76 -1.44 C 2.08 -.16 1.92 1.12 .32 1.12 L -2.08 1.12 L -4.49 1.12 L -4.49 2.08 L -4.81 2.08 L -5.29 2.08 L -5.29 1.12 L -6.89 .8 L -6.89 0 L -6.09 0 L -5.29 0 L -5.29 -1.28 L -4.81 -1.28 L -4.49 -1.28 L -4.49 0 L -2.25 0 L 0 0 Z " fill="#333333"/>
<path transform="matrix(2.0833333,0,0,2.0833333,1182.625,1083.5833)" d="M 0 0 C -1.76 .16 -1.92 4.49 .16 4.49 C 2.88 4.01 .64 -1.28 4.49 -1.44 C 7.37 -1.6 7.69 3.05 6.57 4.97 C 6.25 5.61 5.61 6.09 4.81 6.25 L 4.65 4.97 C 6.73 4.81 6.89 -.32 4.49 -.32 C 1.6 -.32 4.01 5.45 .16 5.77 C -2.88 5.93 -2.88 .32 -1.12 -.8 C -.8 -1.12 -.48 -1.12 -.16 -1.28 L 0 0 Z " fill="#333333"/>
<path transform="matrix(2.0833333,0,0,2.0833333,1182.2916,1071.5833)" d="M 0 0 C 0 -2.41 1.6 -3.21 4.01 -3.21 L 4.01 1.92 C 5.45 1.92 6.41 1.28 6.41 -.16 C 6.57 -1.12 6.09 -1.76 5.45 -1.92 L 5.61 -3.05 C 6.73 -2.57 7.37 -1.6 7.37 -.16 C 7.37 2.08 5.93 3.2 3.69 3.04 C 1.44 3.04 0 2.08 0 0 Z M 3.04 -1.92 C .8 -2.24 .16 .8 1.92 1.6 C 2.24 1.76 2.56 1.92 3.04 1.92 L 3.04 -1.92 Z " fill="#333333"/>
<path transform="matrix(2.0833333,0,0,2.0833333,1193.6459,1059.2291)" d="M 0 0 C .96 0 1.12 -.64 .8 -1.44 L 1.28 -1.44 L 1.76 -1.44 C 2.08 -.16 1.92 1.12 .32 1.12 L -2.08 1.12 L -4.49 1.12 L -4.49 1.92 L -4.81 1.92 L -5.29 1.92 L -5.29 1.12 L -6.89 .8 L -6.89 0 L -6.09 0 L -5.29 0 L -5.29 -1.28 L -4.81 -1.28 L -4.49 -1.28 L -4.49 0 L -2.25 0 L 0 0 Z " fill="#333333"/>
<path transform="matrix(2.0833333,0,0,2.0833333,951.5833,1359.9166)" stroke-width="1.282" stroke-linecap="butt" stroke-miterlimit="4" stroke-linejoin="miter" fill="none" stroke="#5e5e5e" d="M 0 0 L 46.79 0 L 46.95 0 L 46.79 0 L 60.1 0 "/>
<path transform="matrix(2.0833333,0,0,2.0833333,0,0)" d="M 456.28 652.76 L 456.28 652.12 L 456.92 652.12 L 456.92 653.4 L 456.28 653.4 L 456.28 652.76 Z " fill="#5e5e5e"/>
<path transform="matrix(2.0833333,0,0,2.0833333,0,0)" stroke-width=".16" stroke-linecap="butt" stroke-miterlimit="4" stroke-linejoin="miter" fill="none" stroke="#5e5e5e" d="M 456.28 652.76 L 456.28 652.12 L 456.92 652.12 L 456.92 653.4 L 456.28 653.4 L 456.28 652.76 Z "/>
<path transform="matrix(2.0833333,0,0,2.0833333,0,0)" d="M 525.99 652.76 L 517.5 655.48 L 517.5 649.87 L 525.99 652.76 Z " fill="#5e5e5e"/>
<path transform="matrix(2.0833333,0,0,2.0833333,0,0)" stroke-width="1.282" stroke-linecap="butt" stroke-miterlimit="4" stroke-linejoin="miter" fill="none" stroke="#5e5e5e" d="M 525.99 652.76 L 517.5 655.48 L 517.5 649.87 L 525.99 652.76 Z "/>
<path transform="matrix(2.0833333,0,0,2.0833333,951.5833,1359.9166)" stroke-width="1.282" stroke-linecap="butt" stroke-miterlimit="4" stroke-linejoin="miter" fill="none" stroke="#5e5e5e" d="M 0 0 L 43.59 0 C 47.11 0 47.11 -3.69 47.11 -3.69 L 47.27 -118.22 C 47.11 -121.74 50.8 -121.74 50.8 -121.74 L 60.1 -121.74 "/>
<path transform="matrix(2.0833333,0,0,2.0833333,0,0)" d="M 456.28 652.76 L 456.28 652.12 L 456.92 652.12 L 456.92 653.4 L 456.28 653.4 L 456.28 652.76 Z " fill="#5e5e5e"/>
<path transform="matrix(2.0833333,0,0,2.0833333,0,0)" stroke-width=".16" stroke-linecap="butt" stroke-miterlimit="4" stroke-linejoin="miter" fill="none" stroke="#5e5e5e" d="M 456.28 652.76 L 456.28 652.12 L 456.92 652.12 L 456.92 653.4 L 456.28 653.4 L 456.28 652.76 Z "/>
<path transform="matrix(2.0833333,0,0,2.0833333,0,0)" d="M 525.99 531.02 L 517.5 533.74 L 517.5 528.13 L 525.99 531.02 Z " fill="#5e5e5e"/>
<path transform="matrix(2.0833333,0,0,2.0833333,0,0)" stroke-width="1.282" stroke-linecap="butt" stroke-miterlimit="4" stroke-linejoin="miter" fill="none" stroke="#5e5e5e" d="M 525.99 531.02 L 517.5 533.74 L 517.5 528.13 L 525.99 531.02 Z "/>
<path transform="matrix(2.0833333,0,0,2.0833333,1117.8541,1573.8125)" d="M 0 0 C 0 -10.73 10.74 -19.22 24.04 -19.22 C 37.34 -19.22 48.08 -10.73 48.08 0 L 48.08 57.67 C 48.08 68.24 37.34 76.89 24.04 76.89 C 10.74 76.89 0 68.24 0 57.67 L 0 0 Z " fill="#ffffff"/>
<path transform="matrix(2.0833333,0,0,2.0833333,1117.8541,1573.8125)" stroke-width="1.923" stroke-linecap="butt" stroke-miterlimit="4" stroke-linejoin="miter" fill="none" stroke="#5e5e5e" d="M 0 0 C 0 -10.73 10.74 -19.22 24.04 -19.22 C 37.34 -19.22 48.08 -10.73 48.08 0 L 48.08 57.67 C 48.08 68.24 37.34 76.89 24.04 76.89 C 10.74 76.89 0 68.24 0 57.67 L 0 0 Z "/>
<path transform="matrix(2.0833333,0,0,2.0833333,1173.6041,1682.6043)" d="M 0 0 L -8.01 -.16 C -5.13 .8 -2.56 1.93 0 2.89 L 0 3.69 L -8.01 6.73 L 0 6.73 L 0 7.69 L -4.48 7.69 L -9.13 7.69 L -9.13 6.09 L -1.28 3.21 C -4 2.57 -6.57 1.44 -9.13 .48 L -9.13 -1.12 L -4.48 -1.12 L 0 -1.12 L 0 0 Z " fill="#333333"/>
<path transform="matrix(2.0833333,0,0,2.0833333,1173.6041,1675.604)" d="M 0 0 L -4.48 0 L -9.13 0 L -9.13 -1.12 L -4.97 -1.12 L -.96 -1.12 L -.96 -5.77 L -.48 -5.77 L 0 -5.77 L 0 0 Z " fill="#333333"/>
<path transform="matrix(2.0833333,0,0,2.0833333,1173.6041,1637.229)" d="M 0 0 L -8.01 0 C -5.13 .8 -2.56 1.92 0 2.88 L 0 3.84 L -8.01 6.73 L 0 6.73 L 0 7.85 L -4.48 7.85 L -9.13 7.85 L -9.13 6.25 L -1.28 3.36 C -4 2.56 -6.57 1.44 -9.13 .48 L -9.13 -1.12 L -4.48 -1.12 L 0 -1.12 L 0 0 Z " fill="#333333"/>
<path transform="matrix(2.0833333,0,0,2.0833333,1158.9166,1624.875)" d="M 0 0 C -.16 -2.24 1.28 -3.04 3.53 -3.04 C 5.93 -3.04 7.21 -2.08 7.21 .16 C 7.21 2.24 5.77 3.2 3.53 3.2 C 1.12 3.2 0 2.24 0 0 Z M 6.41 .16 C 6.41 -1.44 5.29 -1.92 3.53 -1.92 C 2.08 -1.92 .8 -1.6 .8 0 C .8 1.6 2.08 1.92 3.53 1.92 C 5.13 1.92 6.41 1.6 6.41 .16 Z " fill="#333333"/>
<path transform="matrix(2.0833333,0,0,2.0833333,1158.9166,1610.8543)" d="M 0 0 C 0 -1.28 .48 -1.76 1.12 -2.24 L -2.56 -2.24 L -2.56 -3.36 L 7.05 -3.52 L 7.05 -2.4 C 6.73 -2.24 6.25 -2.4 5.93 -2.24 C 6.89 -1.92 7.21 -1.28 7.21 0 C 7.21 1.93 5.77 2.57 3.69 2.57 C 1.12 2.57 0 1.77 0 0 Z M .8 -.32 C .8 1.12 2.08 1.28 3.53 1.28 C 5.13 1.28 6.41 1.12 6.41 -.32 C 6.41 -1.92 5.13 -2.24 3.53 -2.24 C 1.92 -2.24 .8 -1.92 .8 -.32 Z " fill="#333333"/>
<path transform="matrix(2.0833333,0,0,2.0833333,1158.9166,1594.1666)" d="M 0 0 C 0 -2.4 1.44 -3.2 3.85 -3.2 L 3.85 1.93 C 5.29 1.93 6.41 1.29 6.41 -.16 C 6.41 -1.12 5.93 -1.76 5.29 -1.92 L 5.61 -2.88 C 6.57 -2.56 7.21 -1.6 7.21 -.16 C 7.21 2.09 5.93 3.21 3.53 3.21 C 1.28 3.05 0 2.25 0 0 Z M 2.89 -1.92 C .64 -2.24 0 .81 1.92 1.61 C 2.08 1.77 2.57 1.93 2.89 1.93 L 2.89 -1.92 Z " fill="#333333"/>
<path transform="matrix(2.0833333,0,0,2.0833333,0,0)" d="M 563.33 760.56 L 558.52 760.56 L 553.72 760.56 L 553.72 759.44 L 558.52 759.44 L 563.33 759.44 L 563.33 760.56 Z " fill="#333333"/>
<path transform="matrix(2.0833333,0,0,2.0833333,1162.5833,1569.8125)" d="M 0 0 C -1.28 .16 -1.28 3.2 0 3.2 C 2.09 2.72 .48 -.96 3.37 -1.12 C 6.25 -1.28 6.09 4.49 3.69 4.65 L 3.53 3.69 C 4.81 3.53 5.13 0 3.53 0 C 1.45 .32 2.89 4.17 .16 4.33 C -1.92 4.49 -2.24 1.28 -1.44 -.16 C -1.12 -.64 -.64 -.96 -.16 -.96 L 0 0 Z " fill="#333333"/>
<path transform="matrix(2.0833333,0,0,2.0833333,1299.8124,1733.9999)" d="M 0 0 C -3.52 0 -3.52 -3.68 -3.52 -3.68 L -3.52 -92.58 C -3.52 -96.11 0 -96.11 0 -96.11 L 40.87 -96.11 C 44.56 -96.11 44.56 -92.58 44.56 -92.58 L 44.56 -3.68 C 44.56 0 40.87 0 40.87 0 L 0 0 Z " fill="#ffffff"/>
<path transform="matrix(2.0833333,0,0,2.0833333,1299.8124,1733.9999)" stroke-width="1.923" stroke-linecap="butt" stroke-miterlimit="4" stroke-linejoin="miter" fill="none" stroke="#5e5e5e" d="M 0 0 C -3.52 0 -3.52 -3.68 -3.52 -3.68 L -3.52 -92.58 C -3.52 -96.11 0 -96.11 0 -96.11 L 40.87 -96.11 C 44.56 -96.11 44.56 -92.58 44.56 -92.58 L 44.56 -3.68 C 44.56 0 40.87 0 40.87 0 L 0 0 Z "/>
<path transform="matrix(2.0833333,0,0,2.0833333,1314.8333,1696.2915)" d="M 0 0 C 0 -3.2 -.48 -7.05 2.73 -7.05 C 5.77 -7.05 5.77 -4.32 5.61 -1.28 L 7.38 -1.28 L 9.14 -1.28 L 9.14 0 L 4.65 0 L 0 0 Z M 4.65 -1.28 C 4.65 -3.36 5.13 -5.93 2.73 -5.93 C .65 -5.93 1.13 -3.36 .97 -1.28 L 2.89 -1.28 L 4.65 -1.28 Z " fill="#333333"/>
<path transform="matrix(2.0833333,0,0,2.0833333,1331.2083,1668.9375)" d="M 0 0 C .8 .64 1.6 1.28 1.44 2.56 C 1.44 4 .8 4.8 -.64 4.8 C -3.05 4.8 -2.89 2.4 -2.89 .16 C -4.17 0 -4.97 .48 -4.97 1.6 C -4.97 2.56 -4.65 3.2 -3.85 3.2 L -3.85 4.48 C -5.29 4.16 -5.77 3.2 -5.77 1.6 C -5.77 0 -5.13 -1.13 -3.53 -1.13 L -1.93 -1.13 L -.48 -1.13 C .32 -.97 .8 -1.29 .64 -2.09 L .96 -2.09 L 1.28 -2.09 C 1.6 -.97 1.28 .16 0 0 Z M -.64 3.52 C .16 3.52 .64 3.04 .64 2.4 C .48 .8 -.48 0 -2.09 .16 C -2.09 1.76 -2.25 3.52 -.64 3.52 Z " fill="#333333"/>
<path transform="matrix(2.0833333,0,0,2.0833333,1321.5208,1655.5833)" d="M 0 0 C -.64 2.88 3.37 2.08 5.93 2.24 L 5.93 3.36 L -.96 3.36 L -.96 2.24 C -.64 2.24 0 2.4 .48 2.24 C -.64 1.92 -1.44 1.44 -1.12 0 L -.64 0 L 0 0 Z " fill="#333333"/>
<path transform="matrix(2.0833333,0,0,2.0833333,1331.2083,1644.5624)" d="M 0 0 C .8 .48 1.6 1.12 1.44 2.4 C 1.44 3.85 .8 4.65 -.64 4.65 C -3.05 4.65 -2.89 2.24 -2.89 0 C -4.17 -.16 -4.97 .32 -4.97 1.44 C -4.97 2.4 -4.65 3.05 -3.85 3.05 L -3.85 4.33 C -5.29 4.17 -5.77 3.05 -5.77 1.44 C -5.77 -.16 -5.13 -1.28 -3.53 -1.28 L -1.93 -1.28 L -.48 -1.28 C .32 -1.12 .8 -1.44 .64 -2.24 L .96 -2.24 L 1.28 -2.24 C 1.6 -1.12 1.28 0 0 0 Z M -.64 3.37 C .16 3.37 .64 2.89 .64 2.24 C .48 .64 -.48 -.16 -2.09 0 C -2.09 1.6 -2.25 3.37 -.64 3.37 Z " fill="#333333"/>
<path transform="matrix(2.0833333,0,0,2.0833333,1320.8541,1623.5415)" d="M 0 0 C .16 2.56 4.01 1.44 6.25 1.76 L 6.25 2.88 L 4.01 2.88 L 1.76 2.88 C .8 2.88 0 3.04 0 4.17 C .16 6.57 3.85 5.61 6.25 5.77 L 6.25 6.89 L -.64 6.89 L -.64 5.93 C -.32 5.77 .16 5.93 .48 5.77 C -1.12 5.45 -1.44 2.08 .48 1.76 C -.32 1.44 -.8 .8 -.8 -.32 C -.96 -3.52 3.53 -2.08 6.25 -2.4 L 6.25 -1.28 L 4.01 -1.28 L 1.76 -1.28 C .8 -1.28 0 -1.12 0 0 Z " fill="#333333"/>
<path transform="matrix(2.0833333,0,0,2.0833333,1319.1875,1609.1874)" d="M 0 0 C 0 -2.4 1.45 -3.2 3.85 -3.2 L 3.85 1.76 C 5.29 1.76 6.41 1.28 6.41 -.16 C 6.41 -1.12 5.93 -1.76 5.29 -1.92 L 5.61 -3.04 C 6.57 -2.56 7.21 -1.6 7.21 -.16 C 7.21 2.09 5.93 3.21 3.53 3.05 C 1.28 3.05 0 2.09 0 0 Z M 2.89 -1.92 C .64 -2.24 .16 .8 1.93 1.6 C 2.09 1.76 2.57 1.76 2.89 1.76 L 2.89 -1.92 Z " fill="#333333"/>
<path transform="matrix(2.0833333,0,0,2.0833333,1330.5416,1596.8541)" d="M 0 0 C .8 0 .96 -.64 .8 -1.45 L 1.12 -1.45 L 1.6 -1.45 C 2.09 -.16 1.76 1.12 .16 1.12 L -2.08 1.12 L -4.49 1.12 L -4.49 1.92 L -4.97 1.92 L -5.29 1.92 L -5.29 1.12 L -6.89 .8 L -6.89 0 L -6.09 0 L -5.29 0 L -5.29 -1.29 L -4.97 -1.29 L -4.49 -1.29 L -4.49 0 L -2.24 0 L 0 0 Z " fill="#333333"/>
<path transform="matrix(2.0833333,0,0,2.0833333,1319.1875,1585.8334)" d="M 0 0 C 0 -2.24 1.44 -3.2 3.84 -3.04 L 3.84 1.92 C 5.29 1.92 6.41 1.44 6.41 0 C 6.41 -.96 5.93 -1.6 5.29 -1.92 L 5.61 -2.88 C 6.57 -2.56 7.21 -1.44 7.21 0 C 7.21 2.08 5.93 3.2 3.52 3.2 C 1.28 3.2 0 2.24 0 0 Z M 2.88 -1.92 C .64 -2.08 .16 .96 1.92 1.76 C 2.08 1.76 2.56 1.92 2.88 1.92 L 2.88 -1.92 Z " fill="#333333"/>
<path transform="matrix(2.0833333,0,0,2.0833333,1321.5208,1569.479)" d="M 0 0 C -.64 2.88 3.37 1.92 5.93 2.08 L 5.93 3.2 L -.96 3.36 L -.96 2.24 C -.64 2.08 0 2.24 .48 2.08 C -.64 1.92 -1.44 1.28 -1.12 0 L -.64 0 L 0 0 Z " fill="#333333"/>
<path transform="matrix(2.0833333,0,0,2.0833333,1350.5625,1665.9165)" d="M 0 0 L 4.01 0 L 8.02 0 L 8.02 1.29 L 4.01 1.29 L 0 1.29 L 0 4.33 L -.64 4.33 L -1.12 4.33 L -1.12 -3.2 L -.64 -3.2 L 0 -3.2 L 0 0 Z " fill="#333333"/>
<path transform="matrix(2.0833333,0,0,2.0833333,1367.6041,1653.2499)" d="M 0 0 C .16 3.36 -4.17 2.08 -7.05 2.24 L -7.05 1.12 L -4.97 1.12 L -2.73 1.12 C -1.61 1.12 -.8 .8 -.8 -.32 C -.96 -3.05 -4.65 -2.09 -7.05 -2.25 L -7.05 -3.37 L -.16 -3.37 L -.16 -2.25 C -.48 -2.25 -.96 -2.41 -1.29 -2.25 C -.48 -1.77 0 -1.12 0 0 Z " fill="#333333"/>
<path transform="matrix(2.0833333,0,0,2.0833333,1352.5624,1635.2291)" d="M 0 0 C -.16 -3.21 4.17 -1.93 7.06 -2.25 L 7.06 -.96 L 4.81 -.96 L 2.57 -.96 C 1.45 -.96 .81 -.8 .81 .48 C .97 3.04 4.65 2.08 7.06 2.24 L 7.06 3.36 L .17 3.52 L .17 2.4 C .49 2.24 .97 2.4 1.29 2.24 C .49 1.92 0 1.28 0 0 Z " fill="#333333"/>
<path transform="matrix(2.0833333,0,0,2.0833333,1349.5624,1626.8751)" d="M 0 0 L -.48 0 L -1.12 0 L -1.12 -1.12 L -.48 -1.12 L 0 -1.12 L 0 0 Z M 8.5 0 L 5.13 0 L 1.61 0 L 1.61 -1.12 L 5.13 -1.12 L 8.5 -1.12 L 8.5 0 Z " fill="#333333"/>
<path transform="matrix(2.0833333,0,0,2.0833333,1352.5624,1613.8749)" d="M 0 0 C -.16 -3.37 4.17 -2.09 7.06 -2.25 L 7.06 -1.13 L 4.81 -1.13 L 2.57 -1.13 C 1.45 -1.13 .81 -.81 .81 .32 C .97 3.04 4.65 1.92 7.06 2.08 L 7.06 3.36 L .17 3.36 L .17 2.24 C .49 2.24 .97 2.24 1.29 2.24 C .49 1.76 0 1.12 0 0 Z " fill="#333333"/>
<path transform="matrix(2.0833333,0,0,2.0833333,1352.9166,1593.5)" d="M 0 0 C 4.48 .48 10.73 -1.44 9.61 4.17 C 9.45 4.97 8.81 5.61 8.01 5.77 L 7.85 4.65 C 9.61 4.01 8.97 .8 6.73 1.29 L 6.25 1.29 L 5.6 1.29 C 6.41 1.77 7.05 2.41 7.05 3.53 C 7.05 5.61 5.44 6.09 3.52 6.09 C 1.44 6.09 -.17 5.45 -.17 3.37 C -.17 2.41 .48 1.61 1.12 1.29 C .8 1.29 .32 1.29 0 1.13 L 0 0 Z M 6.09 3.21 C 6.09 1.77 4.96 1.29 3.52 1.29 C 1.92 1.29 .64 1.77 .64 3.21 C .64 4.65 1.92 4.81 3.52 4.81 C 4.96 4.81 6.09 4.65 6.09 3.21 Z " fill="#333333"/>
<path transform="matrix(2.0833333,0,0,2.0833333,1396.3124,1633.5625)" stroke-width="1.282" stroke-linecap="butt" stroke-miterlimit="4" stroke-linejoin="miter" fill="none" stroke="#5e5e5e" d="M 0 0 L 44.39 0 C 48.08 .16 48.08 -3.53 48.08 -3.53 L 48.08 -249.57 C 48.08 -253.09 44.39 -253.09 44.39 -253.09 L -57.7 -253.09 "/>
</g>
<path transform="matrix(2.0833333,0,0,2.0833333,0,0)" d="M 669.6 783.52 L 670.24 783.52 L 670.24 784.8 L 669.6 784.8 Z " fill="#5e5e5e"/>
<clipPath id="cp1">
<path transform="matrix(2.0833333,0,0,2.0833333,0,0)" d="M .16 0 L .16 1122.56 L 793.76 1122.56 L 793.76 0 Z " fill-rule="evenodd"/>
</clipPath>
<g clip-path="url(#cp1)">
<path transform="matrix(2.0833333,0,0,2.0833333,0,0)" stroke-width=".16" stroke-linecap="butt" stroke-miterlimit="4" stroke-linejoin="miter" fill="none" stroke="#5e5e5e" d="M 670.23 783.47 L 670.23 784.75 L 669.59 784.75 L 669.59 783.47 L 670.23 783.47 Z "/>
<path transform="matrix(2.0833333,0,0,2.0833333,0,0)" d="M 603.56 531.02 L 611.89 528.13 L 611.89 533.74 L 603.56 531.02 Z " fill="#5e5e5e"/>
<path transform="matrix(2.0833333,0,0,2.0833333,0,0)" stroke-width="1.282" stroke-linecap="butt" stroke-miterlimit="4" stroke-linejoin="miter" fill="none" stroke="#5e5e5e" d="M 603.56 531.02 L 611.89 528.13 L 611.89 533.74 L 603.56 531.02 Z "/>
<path transform="matrix(2.0833333,0,0,2.0833333,1163.9166,1031.2084)" d="M 0 0 C -3.68 0 -3.68 -3.53 -3.68 -3.53 L -3.68 -108.77 C -3.68 -112.45 -7.21 -112.45 -7.21 -112.45 L -9.93 -112.45 C -13.46 -112.45 -10.89 -114.86 -10.89 -114.86 L 3.53 -127.83 C 6.26 -130.23 8.98 -127.83 8.98 -127.83 L 23.4 -114.86 C 25.97 -112.45 22.44 -112.45 22.44 -112.45 L 19.72 -112.45 C 16.19 -112.45 16.19 -108.77 16.19 -108.77 L 16.19 -3.53 C 16.19 0 12.51 0 12.51 0 L 0 0 Z " fill="#ffffff"/>
<path transform="matrix(2.0833333,0,0,2.0833333,1163.9166,1031.2084)" stroke-width="1.923" stroke-linecap="butt" stroke-miterlimit="4" stroke-linejoin="miter" fill="none" stroke="#5e5e5e" d="M 0 0 C -3.68 0 -3.68 -3.53 -3.68 -3.53 L -3.68 -108.77 C -3.68 -112.45 -7.21 -112.45 -7.21 -112.45 L -9.93 -112.45 C -13.46 -112.45 -10.89 -114.86 -10.89 -114.86 L 3.53 -127.83 C 6.26 -130.23 8.98 -127.83 8.98 -127.83 L 23.4 -114.86 C 25.97 -112.45 22.44 -112.45 22.44 -112.45 L 19.72 -112.45 C 16.19 -112.45 16.19 -108.77 16.19 -108.77 L 16.19 -3.53 C 16.19 0 12.51 0 12.51 0 L 0 0 Z "/>
<path transform="matrix(2.0833333,0,0,2.0833333,1178.9584,991.4791)" d="M 0 0 C .8 .64 1.6 1.13 1.44 2.57 C 1.44 3.85 .8 4.65 -.64 4.65 C -3.05 4.81 -2.89 2.41 -2.89 .16 C -4.17 0 -4.97 .48 -4.97 1.61 C -4.97 2.57 -4.65 3.05 -3.85 3.21 L -3.85 4.33 C -5.29 4.17 -5.77 3.21 -5.77 1.61 C -5.77 -.16 -5.13 -1.12 -3.53 -1.12 L -1.93 -1.12 L -.48 -1.12 C .32 -1.12 .8 -1.44 .64 -2.08 L .96 -2.08 L 1.28 -2.08 C 1.6 -.96 1.28 .16 0 0 Z M -.64 3.53 C .16 3.53 .64 3.05 .64 2.25 C .48 .8 -.48 0 -2.09 .16 C -2.09 1.61 -2.25 3.53 -.64 3.53 Z " fill="#333333"/>
<path transform="matrix(2.0833333,0,0,2.0833333,1181.9583,978.81246)" d="M 0 0 L 0 1.28 L -7.05 3.84 L -7.05 2.72 L -.96 .64 L -7.05 -1.44 L -7.05 -2.73 L 0 0 Z " fill="#333333"/>
<path transform="matrix(2.0833333,0,0,2.0833333,1166.9375,965.4583)" d="M 0 0 C 0 -2.4 1.44 -3.2 3.84 -3.2 L 3.84 1.92 C 5.29 1.92 6.41 1.28 6.41 -.16 C 6.41 -1.12 5.93 -1.76 5.29 -1.92 L 5.61 -2.88 C 6.73 -2.56 7.21 -1.6 7.21 -.16 C 7.21 2.08 5.93 3.2 3.52 3.2 C 1.28 3.04 0 2.08 0 0 Z M 2.88 -1.92 C .64 -2.24 .16 .8 1.92 1.6 C 2.24 1.76 2.56 1.92 2.88 1.92 L 2.88 -1.92 Z " fill="#333333"/>
<path transform="matrix(2.0833333,0,0,2.0833333,1169.2708,948.7708)" d="M 0 0 C -.64 2.88 3.36 2.08 6.09 2.08 L 6.09 3.36 L -.96 3.36 L -.96 2.24 C -.64 2.24 0 2.24 .48 2.24 C -.64 1.92 -1.44 1.28 -1.12 0 L -.64 0 L 0 0 Z " fill="#333333"/>
<path transform="matrix(2.0833333,0,0,2.0833333,1178.9584,937.74996)" d="M 0 0 C .8 .48 1.6 1.13 1.44 2.41 C 1.44 3.85 .8 4.65 -.64 4.65 C -3.05 4.65 -2.89 2.25 -2.89 0 C -4.17 -.16 -4.97 .32 -4.97 1.45 C -4.97 2.41 -4.65 3.05 -3.85 3.05 L -3.85 4.33 C -5.29 4.01 -5.77 3.05 -5.77 1.45 C -5.77 -.16 -5.13 -1.28 -3.53 -1.28 L -1.93 -1.28 L -.48 -1.28 C .32 -1.12 .8 -1.44 .64 -2.24 L .96 -2.24 L 1.28 -2.24 C 1.6 -1.12 1.28 0 0 0 Z M -.64 3.37 C .16 3.37 .64 2.89 .64 2.25 C .48 .65 -.48 -.16 -2.09 0 C -2.09 1.61 -2.25 3.37 -.64 3.37 Z " fill="#333333"/>
<path transform="matrix(2.0833333,0,0,2.0833333,1167.2708,919.39578)" d="M 0 0 C 4.49 .32 10.74 -1.6 9.61 4.01 C 9.45 4.97 8.81 5.45 8.01 5.77 L 7.85 4.49 C 9.61 4.01 8.97 .81 6.73 1.29 L 6.25 1.29 L 5.61 1.29 C 6.41 1.61 7.05 2.25 7.05 3.53 C 7.05 5.45 5.45 5.93 3.52 5.93 C 1.44 5.93 -.16 5.45 -.16 3.37 C -.16 2.25 .48 1.61 1.12 1.13 C .8 1.13 .32 1.13 0 1.13 L 0 0 Z M 6.09 3.05 C 6.09 1.77 4.97 1.29 3.52 1.29 C 1.92 1.29 .64 1.77 .64 3.05 C .64 4.49 1.92 4.81 3.52 4.81 C 4.97 4.81 6.09 4.49 6.09 3.05 Z " fill="#333333"/>
<path transform="matrix(2.0833333,0,0,2.0833333,1166.9375,909.7291)" d="M 0 0 C 0 -2.24 1.44 -3.04 3.84 -3.04 L 3.84 1.92 C 5.29 1.92 6.41 1.44 6.41 0 C 6.41 -.96 5.93 -1.6 5.29 -1.76 L 5.61 -2.88 C 6.73 -2.4 7.21 -1.44 7.21 0 C 7.21 2.08 5.93 3.2 3.52 3.2 C 1.28 3.2 0 2.24 0 0 Z M 2.88 -1.92 C .64 -2.08 .16 .96 1.92 1.76 C 2.24 1.92 2.56 1.92 2.88 1.92 L 2.88 -1.92 Z " fill="#333333"/>
<path transform="matrix(2.0833333,0,0,2.0833333,1166.9375,895.7084)" d="M 0 0 C 0 -1.28 .48 -1.76 1.12 -2.24 L -2.57 -2.24 L -2.57 -3.36 L 7.21 -3.52 L 7.21 -2.4 C 6.73 -2.24 6.25 -2.4 5.93 -2.24 C 6.89 -1.92 7.21 -1.28 7.21 0 C 7.21 1.92 5.77 2.56 3.68 2.56 C 1.12 2.56 0 1.6 0 0 Z M .8 -.32 C .8 1.12 2.08 1.28 3.68 1.28 C 5.13 1.28 6.41 1.12 6.41 -.32 C 6.41 -1.92 5.13 -2.24 3.52 -2.24 C 1.92 -2.24 .8 -1.92 .8 -.32 Z " fill="#333333"/>
<path transform="matrix(2.0833333,0,0,2.0833333,1169.2708,870.35409)" d="M 0 0 C -.64 2.88 3.36 1.92 6.09 2.08 L 6.09 3.2 L -.96 3.36 L -.96 2.24 C -.64 2.08 0 2.24 .48 2.08 C -.64 1.92 -1.44 1.28 -1.12 0 L -.64 0 L 0 0 Z " fill="#333333"/>
<path transform="matrix(2.0833333,0,0,2.0833333,1166.9375,862)" d="M 0 0 C 0 -2.24 1.44 -3.04 3.84 -3.04 L 3.84 1.92 C 5.29 1.92 6.41 1.44 6.41 0 C 6.41 -.96 5.93 -1.6 5.29 -1.76 L 5.61 -2.88 C 6.73 -2.4 7.21 -1.44 7.21 0 C 7.21 2.08 5.93 3.2 3.52 3.2 C 1.28 3.2 0 2.24 0 0 Z M 2.88 -1.92 C .64 -2.08 .16 .96 1.92 1.76 C 2.24 1.92 2.56 1.92 2.88 1.92 L 2.88 -1.92 Z " fill="#333333"/>
<path transform="matrix(2.0833333,0,0,2.0833333,1170.6041,843.9791)" d="M 0 0 C -1.12 .16 -1.28 3.21 0 3.21 C 2.08 2.73 .48 -.96 3.37 -1.12 C 6.25 -1.28 6.09 4.33 3.69 4.65 L 3.53 3.69 C 4.81 3.53 5.13 0 3.53 0 C 1.44 .32 2.89 4.17 .16 4.33 C -1.92 4.49 -2.08 1.28 -1.44 -.16 C -1.12 -.64 -.64 -.96 0 -1.12 L 0 0 Z " fill="#333333"/>
<path transform="matrix(2.0833333,0,0,2.0833333,1181.9583,833.97909)" d="M 0 0 C .16 3.36 -4.17 2.08 -7.05 2.24 L -7.05 1.12 L -4.97 1.12 L -2.73 1.12 C -1.6 1.12 -.8 .8 -.8 -.32 C -.96 -3.05 -4.65 -1.92 -7.05 -2.25 L -7.05 -3.37 L 0 -3.37 L 0 -2.25 C -.48 -2.25 -.96 -2.25 -1.28 -2.25 C -.48 -1.76 0 -1.12 0 0 Z " fill="#333333"/>
<path transform="matrix(2.0833333,0,0,2.0833333,0,0)" d="M 567.34 395.18 L 562.37 395.18 L 557.56 395.18 L 557.56 393.9 L 562.37 393.9 L 567.34 393.9 L 567.34 395.18 Z " fill="#333333"/>
<path transform="matrix(2.0833333,0,0,2.0833333,1178.2916,814.2916)" d="M 0 0 C .8 .16 .96 -.64 .8 -1.28 L 1.28 -1.28 L 1.6 -1.28 C 2.08 -.16 1.76 1.28 .16 1.28 L -2.09 1.28 L -4.49 1.28 L -4.49 2.08 L -4.97 2.08 L -5.29 2.08 L -5.29 1.12 L -6.9 .8 L -6.9 0 L -6.09 0 L -5.29 0 L -5.29 -1.28 L -4.97 -1.28 L -4.49 -1.28 L -4.49 0 L -2.25 0 L 0 0 Z " fill="#333333"/>
<path transform="matrix(2.0833333,0,0,2.0833333,1170.6041,800.93759)" d="M 0 0 C -1.12 0 -1.28 3.2 0 3.2 C 2.08 2.56 .48 -1.12 3.37 -1.28 C 6.25 -1.44 6.09 4.32 3.69 4.64 L 3.53 3.52 C 4.81 3.36 5.13 0 3.53 -.16 C 1.44 .32 2.89 4.16 .16 4.32 C -1.92 4.48 -2.08 1.28 -1.44 -.16 C -1.12 -.64 -.64 -.96 0 -1.12 L 0 0 Z " fill="#333333"/>
<path transform="matrix(2.0833333,0,0,2.0833333,1446.3959,1299.8333)" d="M 0 0 C 0 -10.73 10.74 -19.22 24.04 -19.22 C 37.34 -19.22 48.08 -10.73 48.08 0 L 48.08 57.67 C 48.08 68.24 37.34 76.89 24.04 76.89 C 10.74 76.89 0 68.24 0 57.67 L 0 0 Z " fill="#ffffff"/>
<path transform="matrix(2.0833333,0,0,2.0833333,1446.3959,1299.8333)" stroke-width="1.923" stroke-linecap="butt" stroke-miterlimit="4" stroke-linejoin="miter" fill="none" stroke="#5e5e5e" d="M 0 0 C 0 -10.73 10.74 -19.22 24.04 -19.22 C 37.34 -19.22 48.08 -10.73 48.08 0 L 48.08 57.67 C 48.08 68.24 37.34 76.89 24.04 76.89 C 10.74 76.89 0 68.24 0 57.67 L 0 0 Z "/>
<path transform="matrix(2.0833333,0,0,2.0833333,1485.125,1422.6456)" d="M 0 0 L 4.17 0 L 8.17 0 L 8.17 1.28 L 4.17 1.28 L 0 1.28 L 0 4.49 L -.48 4.49 L -.96 4.49 L -.96 -3.04 L -.48 -3.04 L 0 -3.04 L 0 0 Z " fill="#333333"/>
<path transform="matrix(2.0833333,0,0,2.0833333,1489.7915,1407.9583)" d="M 0 0 C -.64 2.89 3.37 1.92 5.93 2.08 L 5.93 3.21 L -1.12 3.21 L -1.12 2.08 C -.64 2.08 0 2.24 .32 2.08 C -.64 1.92 -1.44 1.28 -1.12 0 L -.64 0 L 0 0 Z " fill="#333333"/>
<path transform="matrix(2.0833333,0,0,2.0833333,1499.4791,1396.625)" d="M 0 0 C .8 .48 1.6 1.12 1.44 2.4 C 1.44 3.84 .64 4.64 -.64 4.64 C -3.04 4.64 -2.88 2.24 -2.88 0 C -4.33 -.16 -4.97 .32 -4.97 1.44 C -4.97 2.4 -4.65 3.04 -3.84 3.04 L -3.84 4.32 C -5.29 4.16 -5.93 3.04 -5.93 1.44 C -5.93 -.16 -5.13 -1.13 -3.52 -1.13 L -1.92 -1.13 L -.48 -1.13 C .32 -1.13 .8 -1.45 .64 -2.25 L .96 -2.25 L 1.28 -2.25 C 1.6 -1.13 1.28 0 0 0 Z M -.64 3.36 C .16 3.36 .64 2.88 .64 2.24 C .48 .64 -.48 -.16 -2.08 0 C -2.08 1.6 -2.4 3.36 -.64 3.36 Z " fill="#333333"/>
<path transform="matrix(2.0833333,0,0,2.0833333,1484.4581,1390.2708)" d="M 0 0 L -.64 0 L -1.12 0 L -1.12 -1.28 L -.64 -1.28 L 0 -1.28 L 0 0 Z M 8.49 0 L 4.97 0 L 1.44 0 L 1.44 -1.28 L 4.97 -1.28 L 8.49 -1.28 L 8.49 0 Z " fill="#333333"/>
<path transform="matrix(2.0833333,0,0,2.0833333,1487.1249,1376.9375)" d="M 0 0 C 0 -3.37 4.33 -2.09 7.21 -2.25 L 7.21 -1.13 L 4.97 -1.13 L 2.73 -1.13 C 1.6 -1.13 .96 -.81 .96 .32 C 1.12 3.04 4.81 1.92 7.21 2.24 L 7.21 3.36 L .16 3.36 L .16 2.24 C .64 2.24 1.12 2.4 1.44 2.24 C .64 1.76 .16 1.12 0 0 Z " fill="#333333"/>
<path transform="matrix(2.0833333,0,0,2.0833333,1502.1459,1344.2291)" d="M 0 0 L -8.01 -.16 C -5.12 .8 -2.72 1.92 0 2.88 L 0 3.68 L -8.01 6.72 L 0 6.72 L 0 7.69 L -4.48 7.69 L -9.13 7.69 L -9.13 6.08 L -1.28 3.2 C -4.16 2.56 -6.57 1.44 -9.13 .48 L -9.13 -1.12 L -4.48 -1.12 L 0 -1.12 L 0 0 Z " fill="#333333"/>
<path transform="matrix(2.0833333,0,0,2.0833333,1487.1249,1331.8749)" d="M 0 0 C 0 -2.24 1.44 -3.2 3.69 -3.2 C 6.09 -3.2 7.37 -2.08 7.37 0 C 7.37 2.24 5.93 3.04 3.69 3.2 C 1.28 3.2 0 2.08 0 0 Z M 6.57 0 C 6.57 -1.6 5.45 -1.92 3.69 -1.92 C 2.09 -1.92 .96 -1.6 .96 0 C .96 1.6 2.09 1.92 3.69 1.92 C 5.29 1.92 6.57 1.6 6.57 0 Z " fill="#333333"/>
<path transform="matrix(2.0833333,0,0,2.0833333,1487.1249,1317.5208)" d="M 0 0 C 0 -1.12 .48 -1.76 1.28 -2.24 L -2.4 -2.08 L -2.4 -3.36 L 7.21 -3.36 L 7.21 -2.24 C 6.89 -2.24 6.41 -2.24 6.09 -2.08 C 7.05 -1.76 7.37 -1.12 7.37 0 C 7.37 1.92 5.93 2.57 3.85 2.57 C 1.28 2.57 0 1.76 0 0 Z M .96 -.32 C .96 1.12 2.25 1.44 3.69 1.44 C 5.29 1.44 6.57 1.12 6.57 -.32 C 6.57 -1.76 5.29 -2.08 3.69 -2.08 C 2.09 -2.08 .96 -1.76 .96 -.32 Z " fill="#333333"/>
<path transform="matrix(2.0833333,0,0,2.0833333,1487.1249,1300.8334)" d="M 0 0 C 0 -2.24 1.6 -3.04 4.01 -3.04 L 4.01 1.93 C 5.45 1.93 6.57 1.45 6.57 0 C 6.57 -.96 6.09 -1.6 5.45 -1.76 L 5.77 -2.88 C 6.73 -2.4 7.37 -1.44 7.37 0 C 7.37 2.09 6.09 3.21 3.69 3.21 C 1.44 3.21 0 2.25 0 0 Z M 3.05 -1.92 C .8 -2.08 .16 .96 2.09 1.77 C 2.25 1.93 2.73 1.93 3.05 1.93 L 3.05 -1.92 Z " fill="#333333"/>
<path transform="matrix(2.0833333,0,0,2.0833333,0,0)" d="M 721.03 619.92 L 716.23 619.92 L 711.42 619.92 L 711.42 618.64 L 716.23 618.64 L 721.03 618.64 L 721.03 619.92 Z " fill="#333333"/>
<path transform="matrix(2.0833333,0,0,2.0833333,1449.729,1640.5624)" d="M 0 0 C -1.6 -3.2 0 -6.57 0 -6.57 L 20.84 -48.06 C 22.44 -51.26 24.04 -48.06 24.04 -48.06 L 44.88 -6.57 C 46.48 -3.2 44.88 0 44.88 0 L 24.04 41.49 C 22.44 44.85 20.84 41.49 20.84 41.49 L 0 0 Z " fill="#ffffff"/>
<path transform="matrix(2.0833333,0,0,2.0833333,1449.729,1640.5624)" stroke-width="1.923" stroke-linecap="butt" stroke-miterlimit="4" stroke-linejoin="miter" fill="none" stroke="#5e5e5e" d="M 0 0 C -1.6 -3.2 0 -6.57 0 -6.57 L 20.84 -48.06 C 22.44 -51.26 24.04 -48.06 24.04 -48.06 L 44.88 -6.57 C 46.48 -3.2 44.88 0 44.88 0 L 24.04 41.49 C 22.44 44.85 20.84 41.49 20.84 41.49 L 0 0 Z "/>
<path transform="matrix(2.0833333,0,0,2.0833333,1482.7916,1692.2915)" d="M 0 0 C 0 -3.21 -.48 -7.05 2.88 -7.05 C 5.77 -7.05 5.77 -4.17 5.61 -1.12 L 7.37 -1.12 L 9.29 -1.12 L 9.29 0 L 4.65 0 L 0 0 Z M 4.65 -1.12 C 4.65 -3.37 5.13 -5.77 2.88 -5.77 C .64 -5.77 1.12 -3.21 .96 -1.12 L 2.88 -1.12 L 4.65 -1.12 Z " fill="#333333"/>
<path transform="matrix(2.0833333,0,0,2.0833333,1499.1458,1665.2499)" d="M 0 0 C .8 .48 1.6 1.12 1.6 2.57 C 1.44 3.85 .8 4.65 -.64 4.65 C -2.88 4.65 -2.88 2.41 -2.88 0 C -4.17 -.16 -4.97 .32 -4.97 1.61 C -4.97 2.41 -4.65 3.05 -3.84 3.05 L -3.84 4.33 C -5.29 4.17 -5.77 3.05 -5.77 1.45 C -5.77 -.16 -5.13 -1.12 -3.36 -1.12 L -1.92 -1.12 L -.48 -1.12 C .32 -1.12 .8 -1.44 .64 -2.24 L .96 -2.24 L 1.28 -2.24 C 1.6 -1.12 1.28 0 0 0 Z M -.64 3.37 C .16 3.37 .64 3.05 .64 2.25 C .48 .8 -.48 -.16 -2.08 0 C -2.08 1.61 -2.24 3.37 -.64 3.37 Z " fill="#333333"/>
<path transform="matrix(2.0833333,0,0,2.0833333,1489.4584,1651.9166)" d="M 0 0 C -.64 2.88 3.37 1.92 6.09 2.08 L 6.09 3.2 L -.96 3.36 L -.96 2.24 C -.64 2.24 0 2.24 .48 2.08 C -.64 1.92 -1.44 1.28 -1.12 0 L -.48 0 L 0 0 Z " fill="#333333"/>
<path transform="matrix(2.0833333,0,0,2.0833333,1499.1458,1640.5624)" d="M 0 0 C .8 .64 1.6 1.12 1.6 2.56 C 1.44 3.84 .8 4.65 -.64 4.65 C -2.88 4.81 -2.88 2.4 -2.88 0 C -4.17 0 -4.97 .32 -4.97 1.6 C -4.97 2.4 -4.65 3.04 -3.84 3.2 L -3.84 4.32 C -5.29 4.16 -5.77 3.2 -5.77 1.6 C -5.77 -.16 -5.13 -1.12 -3.36 -1.12 L -1.92 -1.12 L -.48 -1.12 C .32 -1.12 .8 -1.44 .64 -2.24 L .96 -2.24 L 1.28 -2.24 C 1.6 -.96 1.28 .16 0 0 Z M -.64 3.52 C .16 3.52 .64 3.04 .64 2.24 C .48 .8 -.48 0 -2.08 0 C -2.08 1.6 -2.24 3.52 -.64 3.52 Z " fill="#333333"/>
<path transform="matrix(2.0833333,0,0,2.0833333,1488.7915,1619.8749)" d="M 0 0 C .16 2.4 4.01 1.44 6.41 1.6 L 6.41 2.72 L 4.17 2.72 L 1.93 2.72 C .8 2.72 0 2.88 0 4 C .16 6.57 4.01 5.44 6.41 5.6 L 6.41 6.89 L -.64 6.89 L -.64 5.77 C -.32 5.77 .16 5.77 .48 5.6 C -1.12 5.28 -1.44 2.08 .48 1.76 C -.32 1.28 -.8 .64 -.8 -.48 C -.96 -3.53 3.53 -2.24 6.41 -2.4 L 6.41 -1.28 L 4.17 -1.28 L 1.93 -1.28 C .8 -1.28 0 -1.12 0 0 Z " fill="#333333"/>
<path transform="matrix(2.0833333,0,0,2.0833333,1487.1249,1605.1874)" d="M 0 0 C 0 -2.24 1.44 -3.2 3.85 -3.04 L 3.85 1.92 C 5.29 1.92 6.41 1.44 6.41 0 C 6.41 -.96 5.93 -1.6 5.29 -1.92 L 5.61 -2.88 C 6.73 -2.56 7.37 -1.6 7.37 0 C 7.37 2.08 5.93 3.2 3.53 3.2 C 1.28 3.2 0 2.24 0 0 Z M 2.89 -1.92 C .8 -2.08 .16 .96 1.93 1.76 C 2.25 1.76 2.57 1.92 2.89 1.92 L 2.89 -1.92 Z " fill="#333333"/>
<path transform="matrix(2.0833333,0,0,2.0833333,1498.4791,1592.8333)" d="M 0 0 C .8 .16 .96 -.64 .8 -1.28 L 1.28 -1.28 L 1.6 -1.28 C 2.08 -.16 1.92 1.29 .16 1.29 L -2.08 1.29 L -4.49 1.29 L -4.49 2.09 L -4.97 2.09 L -5.29 2.09 L -5.29 1.12 L -6.89 .8 L -6.89 0 L -6.09 0 L -5.29 0 L -5.29 -1.28 L -4.97 -1.28 L -4.49 -1.28 L -4.49 0 L -2.24 0 L 0 0 Z " fill="#333333"/>
<path transform="matrix(2.0833333,0,0,2.0833333,1487.1249,1582.1666)" d="M 0 0 C 0 -2.4 1.44 -3.21 3.85 -3.21 L 3.85 1.76 C 5.29 1.76 6.41 1.28 6.41 -.16 C 6.41 -1.12 5.93 -1.76 5.29 -1.92 L 5.61 -3.05 C 6.73 -2.57 7.37 -1.6 7.37 -.16 C 7.37 2.08 5.93 3.2 3.53 3.04 C 1.28 3.04 0 2.08 0 0 Z M 2.89 -1.92 C .8 -2.24 .16 .8 1.93 1.6 C 2.25 1.76 2.57 1.76 2.89 1.76 L 2.89 -1.92 Z " fill="#333333"/>
<path transform="matrix(2.0833333,0,0,2.0833333,1489.4584,1565.4791)" d="M 0 0 C -.64 2.88 3.37 1.92 6.09 2.08 L 6.09 3.36 L -.96 3.36 L -.96 2.24 C -.64 2.24 0 2.24 .48 2.24 C -.64 1.92 -1.44 1.28 -1.12 0 L -.48 0 L 0 0 Z " fill="#333333"/>
<path transform="matrix(2.0833333,0,0,2.0833333,973.2708,1007.5)" d="M 0 0 C -.16 -3.04 3.21 -3.52 4.97 -1.6 L 7.06 .64 C 7.38 1.12 7.86 1.44 8.34 1.76 L 8.34 -3.04 L 8.82 -3.04 L 9.3 -3.04 L 9.3 3.05 C 5.61 2.89 5.93 -1.76 2.57 -1.76 C 1.61 -1.76 .97 -1.12 .97 0 C .97 .96 1.61 1.6 2.57 1.76 L 2.41 2.89 C .97 2.73 .16 1.76 0 0 Z " fill="#333333"/>
<path transform="matrix(2.0833333,0,0,2.0833333,973.2708,991.81246)" d="M 0 0 C 0 -2.4 2.09 -3.04 4.81 -3.04 C 7.38 -3.04 9.46 -2.4 9.46 .16 C 9.46 2.57 7.38 3.37 4.81 3.37 C 2.09 3.37 0 2.73 0 0 Z M 8.5 .16 C 8.5 -1.6 6.73 -1.92 4.81 -1.92 C 2.73 -1.92 .97 -1.76 .97 0 C .97 1.93 2.73 2.09 4.81 2.09 C 6.73 2.09 8.5 1.93 8.5 .16 Z " fill="#333333"/>
<path transform="matrix(2.0833333,0,0,2.0833333,992.6458,965.7916)" d="M 0 0 L -2.89 1.92 L 0 3.84 L 0 5.13 L -3.53 2.56 L -7.05 4.97 L -7.05 3.68 L -4.33 1.92 L -7.05 .16 L -7.05 -1.12 L -3.53 1.28 L 0 -1.28 L 0 0 Z " fill="#333333"/>
<path transform="matrix(2.0833333,0,0,2.0833333,1262.75,1586.8333)" d="M 0 0 C -1.44 -1.76 -.32 -5.13 2.25 -4.97 C 5.93 -5.29 6.41 .8 3.21 1.44 L 3.05 .32 C 3.85 0 4.33 -.64 4.33 -1.6 C 4.33 -3.04 3.53 -3.52 2.25 -3.68 C .16 -3.84 -.16 -.96 .97 0 L .97 1.12 L -4 .8 L -4 -4.32 L -3.52 -4.32 L -3.04 -4.32 L -3.04 -.16 L 0 0 Z " fill="#333333"/>
<path transform="matrix(2.0833333,0,0,2.0833333,1259.75,1551.4584)" d="M 0 0 C -1.12 .32 -1.6 1.28 -1.6 2.72 C -1.6 4.81 -.16 5.93 1.92 5.93 C 4.17 5.93 5.77 4.81 5.77 2.56 C 5.77 .96 4.81 .32 3.85 -.32 L 4.33 -1.28 C 5.77 -.64 6.73 .64 6.73 2.72 C 6.73 5.61 4.97 7.05 1.92 7.21 C -1.92 7.37 -3.68 3.52 -2.08 .32 C -1.76 -.48 -1.12 -.96 -.48 -1.12 L 0 0 Z " fill="#333333"/>
<path transform="matrix(2.0833333,0,0,2.0833333,1273.4375,1537.104)" d="M 0 0 L 0 1.28 L -9.13 5.13 L -9.13 3.69 L -1.12 .64 L -9.13 -2.4 L -9.13 -3.68 L 0 0 Z " fill="#333333"/>
<path transform="matrix(2.0833333,0,0,2.0833333,440.72917,1720.3124)" d="M 0 0 C -3.53 0 -3.53 -3.52 -3.53 -3.52 L -3.53 -92.42 C -3.53 -96.11 0 -96.11 0 -96.11 L 40.87 -96.11 C 44.55 -96.11 44.55 -92.42 44.55 -92.42 L 44.55 -3.52 C 44.55 0 40.87 0 40.87 0 L 0 0 Z " fill="#ffffff"/>
<path transform="matrix(2.0833333,0,0,2.0833333,440.72917,1720.3124)" stroke-width="1.923" stroke-linecap="butt" stroke-miterlimit="4" stroke-linejoin="miter" fill="none" stroke="#5e5e5e" d="M 0 0 C -3.53 0 -3.53 -3.52 -3.53 -3.52 L -3.53 -92.42 C -3.53 -96.11 0 -96.11 0 -96.11 L 40.87 -96.11 C 44.55 -96.11 44.55 -92.42 44.55 -92.42 L 44.55 -3.52 C 44.55 0 40.87 0 40.87 0 L 0 0 Z "/>
<path transform="matrix(2.0833333,0,0,2.0833333,474.79164,1639.8959)" d="M 0 0 L -2.57 1.12 L -2.57 5.29 L 0 6.41 L 0 7.69 L -9.14 3.84 L -9.14 2.4 L 0 -1.12 L 0 0 Z M -3.53 1.44 L -8.18 3.2 C -6.57 3.68 -5.13 4.32 -3.53 4.97 L -3.53 1.44 Z " fill="#333333"/>
<path transform="matrix(2.0833333,0,0,2.0833333,475.12498,1630.8749)" d="M 0 0 C .16 3.21 -4.33 1.93 -7.21 2.25 L -7.21 1.13 L -4.97 1.13 L -2.73 1.13 C -1.61 1.13 -.8 .81 -.8 -.32 C -.96 -3.04 -4.65 -2.08 -7.21 -2.24 L -7.21 -3.36 L -.16 -3.36 L -.16 -2.24 C -.48 -2.24 -.96 -2.4 -1.28 -2.24 C -.48 -1.76 0 -1.28 0 0 Z " fill="#333333"/>
<path transform="matrix(2.0833333,0,0,2.0833333,460.1042,1615.2083)" d="M 0 0 C 0 -1.13 .48 -1.77 1.12 -2.25 L -2.57 -2.09 L -2.57 -3.37 L 7.05 -3.37 L 7.05 -2.25 C 6.73 -2.25 6.25 -2.25 5.93 -2.09 C 6.89 -1.77 7.21 -1.13 7.21 0 C 7.21 2.08 5.77 2.56 3.68 2.72 C 1.12 2.72 0 1.76 0 0 Z M .8 -.32 C .8 1.28 2.08 1.44 3.52 1.44 C 5.12 1.44 6.41 1.28 6.41 -.32 C 6.41 -1.77 5.12 -2.09 3.52 -2.09 C 1.92 -2.09 .8 -1.77 .8 -.32 Z " fill="#333333"/>
<path transform="matrix(2.0833333,0,0,2.0833333,457.08329,1604.5208)" d="M 0 0 L -.64 0 L -1.12 0 L -1.12 -1.12 L -.64 -1.12 L 0 -1.12 L 0 0 Z M 8.5 0 L 4.97 0 L 1.45 0 L 1.45 -1.12 L 4.97 -1.12 L 8.5 -1.12 L 8.5 0 Z " fill="#333333"/>
<path transform="matrix(2.0833333,0,0,2.0833333,460.1042,1592.5001)" d="M 0 0 C -.16 -2.24 1.28 -3.04 3.52 -3.04 C 5.93 -3.2 7.21 -2.08 7.21 .16 C 7.21 2.25 5.77 3.21 3.52 3.21 C 1.12 3.21 0 2.09 0 0 Z M 6.41 .16 C 6.41 -1.6 5.28 -1.92 3.52 -1.92 C 1.92 -1.92 .8 -1.6 .8 0 C .8 1.61 1.92 1.93 3.52 1.93 C 5.12 1.93 6.41 1.61 6.41 .16 Z " fill="#333333"/>
<path transform="matrix(2.0833333,0,0,2.0833333,491.47914,1670.2708)" d="M 0 0 L 1.6 0 L 3.37 0 L 3.37 -5.13 L 3.85 -5.13 L 4.33 -5.13 L 4.33 0 L 6.25 0 L 8.01 0 L 8.01 1.28 L 3.53 1.28 L -1.12 1.28 L -1.12 -5.29 L -.64 -5.29 L 0 -5.29 L 0 0 Z " fill="#333333"/>
<path transform="matrix(2.0833333,0,0,2.0833333,493.47914,1650.5834)" d="M 0 0 C 0 -2.41 1.44 -3.21 3.85 -3.21 L 3.85 1.92 C 5.29 1.92 6.41 1.28 6.41 -.16 C 6.41 -1.13 5.93 -1.77 5.29 -1.93 L 5.61 -3.05 C 6.57 -2.57 7.21 -1.61 7.21 -.16 C 7.21 2.08 5.93 3.2 3.53 3.04 C 1.28 3.04 0 2.08 0 0 Z M 2.89 -1.93 C .64 -2.25 0 .8 1.93 1.6 C 2.09 1.76 2.57 1.92 2.89 1.92 L 2.89 -1.93 Z " fill="#333333"/>
<path transform="matrix(2.0833333,0,0,2.0833333,505.49998,1631.8958)" d="M 0 0 C .8 .48 1.6 1.12 1.44 2.56 C 1.44 3.84 .64 4.64 -.64 4.64 C -3.04 4.64 -2.88 2.4 -2.88 0 C -4.33 0 -4.97 .32 -4.97 1.6 C -4.97 2.4 -4.65 3.04 -3.84 3.04 L -3.84 4.32 C -5.29 4.16 -5.77 3.04 -5.77 1.44 C -5.77 -.17 -5.13 -1.13 -3.52 -1.13 L -1.92 -1.13 L -.48 -1.13 C .32 -1.13 .8 -1.45 .64 -2.25 L .96 -2.25 L 1.28 -2.25 C 1.6 -1.13 1.28 0 0 0 Z M -.64 3.52 C .16 3.52 .64 3.04 .64 2.24 C .48 .8 -.48 0 -2.08 0 C -2.08 1.6 -2.24 3.52 -.64 3.52 Z " fill="#333333"/>
<path transform="matrix(2.0833333,0,0,2.0833333,504.83335,1622.8749)" d="M 0 0 C .8 0 .96 -.64 .8 -1.44 L 1.12 -1.44 L 1.6 -1.44 C 2.08 -.16 1.76 1.12 .16 1.12 L -2.24 1.12 L -4.49 1.12 L -4.49 1.92 L -4.97 1.92 L -5.45 1.92 L -5.45 1.12 L -7.05 .8 L -7.05 0 L -6.25 0 L -5.45 0 L -5.45 -1.28 L -4.97 -1.28 L -4.49 -1.28 L -4.49 0 L -2.24 0 L 0 0 Z " fill="#333333"/>
<path transform="matrix(2.0833333,0,0,2.0833333,508.49998,1613.1874)" d="M 0 0 C .16 3.21 -4.16 1.93 -7.21 2.25 L -7.21 .97 L -4.96 .97 L -2.72 .97 C -1.6 .97 -.8 .81 -.8 -.48 C -.96 -3.04 -4.64 -2.08 -7.21 -2.24 L -7.21 -3.36 L -.16 -3.52 L -.16 -2.4 C -.48 -2.24 -.96 -2.4 -1.28 -2.24 C -.48 -1.92 0 -1.28 0 0 Z " fill="#333333"/>
<path transform="matrix(2.0833333,0,0,2.0833333,495.8125,1595.5206)" d="M 0 0 C -.64 2.89 3.37 1.92 5.93 2.08 L 5.93 3.21 L -1.12 3.21 L -1.12 2.08 C -.64 2.08 0 2.24 .32 2.08 C -.64 1.92 -1.44 1.28 -1.12 0 L -.64 0 L 0 0 Z " fill="#333333"/>
<path transform="matrix(2.0833333,0,0,2.0833333,493.47914,1587.1666)" d="M 0 0 C 0 -2.24 1.44 -3.2 3.85 -3.04 L 3.85 1.92 C 5.29 1.92 6.41 1.44 6.41 0 C 6.41 -.96 5.93 -1.6 5.29 -1.92 L 5.61 -2.88 C 6.57 -2.56 7.21 -1.6 7.21 0 C 7.21 2.08 5.93 3.2 3.53 3.2 C 1.28 3.2 0 2.24 0 0 Z M 2.89 -1.92 C .64 -2.08 0 .96 1.93 1.76 C 2.09 1.76 2.57 1.92 2.89 1.92 L 2.89 -1.92 Z " fill="#333333"/>
<path transform="matrix(2.0833333,0,0,2.0833333,497.16664,1569.1459)" d="M 0 0 C -1.29 .16 -1.29 3.2 0 3.2 C 2.08 2.56 .48 -1.12 3.36 -1.28 C 6.25 -1.44 6.09 4.33 3.68 4.65 L 3.52 3.52 C 4.8 3.36 5.12 0 3.52 0 C 1.44 .32 2.88 4.17 .16 4.33 C -1.93 4.49 -2.25 1.28 -1.45 -.16 C -1.13 -.64 -.65 -.96 -.17 -1.12 L 0 0 Z " fill="#333333"/>
<path transform="matrix(2.0833333,0,0,2.0833333,440.72917,1200.0625)" d="M 0 0 C -3.53 0 -3.53 -3.52 -3.53 -3.52 L -3.53 -92.42 C -3.53 -96.11 0 -96.11 0 -96.11 L 40.87 -96.11 C 44.55 -96.11 44.55 -92.42 44.55 -92.42 L 44.55 -3.52 C 44.55 0 40.87 0 40.87 0 L 0 0 Z " fill="#ffffff"/>
<path transform="matrix(2.0833333,0,0,2.0833333,440.72917,1200.0625)" stroke-width="1.923" stroke-linecap="butt" stroke-miterlimit="4" stroke-linejoin="miter" fill="none" stroke="#5e5e5e" d="M 0 0 C -3.53 0 -3.53 -3.52 -3.53 -3.52 L -3.53 -92.42 C -3.53 -96.11 0 -96.11 0 -96.11 L 40.87 -96.11 C 44.55 -96.11 44.55 -92.42 44.55 -92.42 L 44.55 -3.52 C 44.55 0 40.87 0 40.87 0 L 0 0 Z "/>
<path transform="matrix(2.0833333,0,0,2.0833333,474.79164,1133.3124)" d="M 0 0 L -4.48 0 L -9.13 0 L -9.13 -1.12 L -4.97 -1.12 L -.96 -1.12 L -.96 -5.77 L -.48 -5.77 L 0 -5.77 L 0 0 Z " fill="#333333"/>
<path transform="matrix(2.0833333,0,0,2.0833333,460.1042,1107.625)" d="M 0 0 L 8.33 3.2 C 9.29 3.68 10.09 4.48 9.77 6.08 L 9.45 6.08 L 8.97 6.08 C 9.13 4.64 8.17 4.16 7.05 3.84 L 0 6.56 L 0 5.28 L 5.93 3.2 L 0 1.12 L 0 0 Z " fill="#333333"/>
<path transform="matrix(2.0833333,0,0,2.0833333,462.4375,1098.6041)" d="M 0 0 C -.64 2.89 3.36 1.92 5.93 2.08 L 5.93 3.37 L -1.12 3.37 L -1.12 2.25 C -.64 2.25 0 2.25 .32 2.25 C -.64 1.92 -1.44 1.28 -1.12 0 L -.64 0 L 0 0 Z " fill="#333333"/>
<path transform="matrix(2.0833333,0,0,2.0833333,457.08329,1096.2709)" d="M 0 0 L -.64 0 L -1.12 0 L -1.12 -1.12 L -.64 -1.12 L 0 -1.12 L 0 0 Z M 8.5 0 L 4.97 0 L 1.45 0 L 1.45 -1.12 L 4.97 -1.12 L 8.5 -1.12 L 8.5 0 Z " fill="#333333"/>
<path transform="matrix(2.0833333,0,0,2.0833333,461.77079,1084.5833)" d="M 0 0 C 0 1.61 1.28 1.93 2.72 1.93 C 4.16 1.93 5.61 1.45 5.61 0 C 5.61 -.8 4.97 -1.44 4.16 -1.6 L 4.16 -2.72 C 5.61 -2.56 6.41 -1.6 6.41 0 C 6.41 2.25 4.97 2.89 2.72 3.05 C -.64 3.37 -2.09 -.64 .48 -2.4 C .64 -2.56 .96 -2.56 1.28 -2.56 L 1.28 -1.44 C .64 -1.28 0 -.8 0 0 Z " fill="#333333"/>
<path transform="matrix(2.0833333,0,0,2.0833333,463.7708,1067.9166)" d="M 0 0 C -1.28 0 -1.28 3.2 0 3.2 C 2.08 2.56 .48 -1.13 3.36 -1.29 C 6.25 -1.45 6.09 4.32 3.68 4.64 L 3.52 3.52 C 4.81 3.36 5.13 0 3.52 0 C 1.44 .32 2.88 4.16 .16 4.32 C -1.92 4.48 -2.25 1.28 -1.44 -.16 C -1.12 -.65 -.64 -.97 -.16 -1.13 L 0 0 Z " fill="#333333"/>
<path transform="matrix(2.0833333,0,0,2.0833333,508.16667,1135.9791)" d="M 0 0 L -2.56 .96 L -2.56 5.13 L 0 6.25 L 0 7.53 L -9.13 3.85 L -9.13 2.41 L 0 -1.28 L 0 0 Z M -3.52 1.44 L -8.17 3.05 C -6.57 3.53 -5.12 4.33 -3.52 4.81 L -3.52 1.44 Z " fill="#333333"/>
<path transform="matrix(2.0833333,0,0,2.0833333,493.47914,1124.3125)" d="M 0 0 C -.16 -3.37 4.17 -2.09 7.05 -2.25 L 7.05 -1.12 L 4.81 -1.12 L 2.57 -1.12 C 1.44 -1.12 .8 -.8 .8 .32 C .96 3.04 4.65 1.92 7.05 2.08 L 7.05 3.36 L 0 3.36 L 0 2.24 C .48 2.24 .96 2.24 1.28 2.24 C .48 1.76 0 1.12 0 0 Z " fill="#333333"/>
<path transform="matrix(2.0833333,0,0,2.0833333,505.49998,1106.9583)" d="M 0 0 C .8 .48 1.6 1.12 1.44 2.4 C 1.44 3.84 .64 4.64 -.64 4.64 C -3.04 4.64 -2.88 2.24 -2.88 0 C -4.33 -.16 -4.97 .32 -4.97 1.44 C -4.97 2.4 -4.65 3.04 -3.84 3.04 L -3.84 4.32 C -5.29 4.16 -5.77 3.04 -5.77 1.44 C -5.77 -.16 -5.13 -1.12 -3.52 -1.12 L -1.92 -1.12 L -.48 -1.12 C .32 -1.12 .8 -1.44 .64 -2.25 L .96 -2.25 L 1.28 -2.25 C 1.6 -1.12 1.28 0 0 0 Z M -.64 3.36 C .16 3.36 .64 2.88 .64 2.24 C .48 .64 -.48 -.16 -2.08 0 C -2.08 1.6 -2.24 3.36 -.64 3.36 Z " fill="#333333"/>
<path transform="matrix(2.0833333,0,0,2.0833333,0,0)" d="M 243.92 528.29 L 239.12 528.29 L 234.31 528.29 L 234.31 527.01 L 239.12 527.01 L 243.92 527.01 L 243.92 528.29 Z " fill="#333333"/>
<path transform="matrix(2.0833333,0,0,2.0833333,493.47914,1082.2499)" d="M 0 0 L 8.34 3.21 C 9.3 3.85 10.1 4.65 9.78 6.25 L 9.46 6.25 L 8.98 6.25 C 9.14 4.81 8.18 4.33 7.05 3.85 L 0 6.73 L 0 5.45 L 5.93 3.37 L 0 1.29 L 0 0 Z " fill="#333333"/>
<path transform="matrix(2.0833333,0,0,2.0833333,497.16664,1071.9166)" d="M 0 0 C -1.29 .16 -1.29 3.2 0 3.2 C 2.08 2.72 .48 -1.12 3.36 -1.12 C 6.25 -1.28 6.09 4.32 3.68 4.64 L 3.52 3.52 C 4.8 3.36 5.12 0 3.52 0 C 1.44 .32 2.88 4.16 .16 4.32 C -1.93 4.48 -2.25 1.28 -1.45 -.16 C -1.13 -.64 -.65 -.96 -.17 -1.12 L 0 0 Z " fill="#333333"/>
<path transform="matrix(2.0833333,0,0,2.0833333,490.47914,1066.5625)" d="M 0 0 L -.64 0 L -1.12 0 L -1.12 -1.12 L -.64 -1.12 L 0 -1.12 L 0 0 Z M 8.5 0 L 4.97 0 L 1.45 0 L 1.45 -1.12 L 4.97 -1.12 L 8.5 -1.12 L 8.5 0 Z " fill="#333333"/>
<path transform="matrix(2.0833333,0,0,2.0833333,497.16664,1051.8958)" d="M 0 0 C -1.29 .16 -1.29 3.2 0 3.2 C 2.08 2.72 .48 -1.12 3.36 -1.12 C 6.25 -1.28 6.09 4.32 3.68 4.64 L 3.52 3.52 C 4.8 3.52 5.12 0 3.52 0 C 1.44 .32 2.88 4.16 .16 4.32 C -1.93 4.48 -2.25 1.28 -1.45 -.16 C -1.13 -.64 -.65 -.96 -.17 -1.12 L 0 0 Z " fill="#333333"/>
<path transform="matrix(2.0833333,0,0,2.0833333,440.72917,1460.354)" d="M 0 0 C -3.52 0 -3.52 -3.68 -3.52 -3.68 L -3.52 -92.58 C -3.52 -96.11 0 -96.11 0 -96.11 L 40.87 -96.11 C 44.56 -96.11 44.56 -92.58 44.56 -92.58 L 44.56 -3.68 C 44.56 0 40.87 0 40.87 0 L 0 0 Z " fill="#ffffff"/>
<path transform="matrix(2.0833333,0,0,2.0833333,440.72917,1460.354)" stroke-width="1.923" stroke-linecap="butt" stroke-miterlimit="4" stroke-linejoin="miter" fill="none" stroke="#5e5e5e" d="M 0 0 C -3.52 0 -3.52 -3.68 -3.52 -3.68 L -3.52 -92.58 C -3.52 -96.11 0 -96.11 0 -96.11 L 40.87 -96.11 C 44.56 -96.11 44.56 -92.58 44.56 -92.58 L 44.56 -3.68 C 44.56 0 40.87 0 40.87 0 L 0 0 Z "/>
<path transform="matrix(2.0833333,0,0,2.0833333,474.45835,1440)" d="M 0 0 C -1.93 .16 -2.09 4.65 0 4.65 C 2.72 4.16 .48 -1.28 4.48 -1.44 C 7.37 -1.6 7.69 3.04 6.41 5.13 C 6.09 5.77 5.45 6.09 4.81 6.25 L 4.48 5.13 C 6.57 4.81 6.89 -.16 4.48 -.16 C 1.6 -.16 4 5.61 0 5.77 C -2.89 6.09 -3.05 .48 -1.12 -.8 C -.96 -.96 -.64 -1.12 -.32 -1.28 L 0 0 Z " fill="#333333"/>
<path transform="matrix(2.0833333,0,0,2.0833333,473.79167,1427.9791)" d="M 0 0 C 0 -2.24 1.44 -3.04 3.68 -3.04 C 6.09 -3.2 7.37 -2.08 7.37 0 C 7.37 2.25 5.93 3.21 3.68 3.21 C 1.28 3.21 0 2.09 0 0 Z M 6.57 0 C 6.57 -1.6 5.29 -1.92 3.68 -1.92 C 2.08 -1.92 .96 -1.6 .96 0 C .96 1.61 2.08 1.93 3.68 1.93 C 5.29 1.93 6.41 1.61 6.57 0 Z " fill="#333333"/>
<path transform="matrix(2.0833333,0,0,2.0833333,475.79167,1412.9583)" d="M 0 0 C 0 1.45 1.28 1.77 2.72 1.77 C 4.17 1.77 5.45 1.45 5.45 0 C 5.45 -.96 4.97 -1.6 4.17 -1.6 L 4.17 -2.72 C 5.61 -2.56 6.41 -1.6 6.41 0 C 6.41 2.09 4.97 2.73 2.72 3.05 C -.64 3.37 -2.09 -.8 .48 -2.4 C .64 -2.56 .96 -2.72 1.28 -2.72 L 1.28 -1.6 C .48 -1.44 0 -.96 0 0 Z " fill="#333333"/>
<path transform="matrix(2.0833333,0,0,2.0833333,471.10417,1404.6249)" d="M 0 0 L -.64 0 L -1.12 0 L -1.12 -1.28 L -.64 -1.28 L 0 -1.28 L 0 0 Z M 8.49 0 L 4.97 0 L 1.44 0 L 1.44 -1.28 L 4.97 -1.28 L 8.49 -1.28 L 8.49 0 Z " fill="#333333"/>
<path transform="matrix(2.0833333,0,0,2.0833333,473.79167,1392.6041)" d="M 0 0 C 0 -2.24 1.44 -3.2 3.68 -3.2 C 6.09 -3.2 7.37 -2.08 7.37 0 C 7.37 2.25 5.93 3.05 3.68 3.21 C 1.28 3.21 0 2.09 0 0 Z M 6.57 0 C 6.57 -1.6 5.29 -1.92 3.68 -1.92 C 2.08 -1.92 .96 -1.6 .96 0 C .96 1.61 2.08 1.93 3.68 1.93 C 5.29 1.93 6.41 1.61 6.57 0 Z " fill="#333333"/>
<path transform="matrix(2.0833333,0,0,2.0833333,473.79167,1377.2708)" d="M 0 0 C 0 -2.4 1.6 -3.21 4.01 -3.21 L 4.01 1.92 C 5.45 1.92 6.41 1.28 6.57 -.16 C 6.57 -1.12 6.09 -1.76 5.45 -1.92 L 5.77 -3.05 C 6.73 -2.56 7.37 -1.6 7.37 -.16 C 7.37 2.08 6.09 3.2 3.68 3.04 C 1.44 3.04 0 2.08 0 0 Z M 3.04 -1.92 C .8 -2.24 .16 .8 2.08 1.6 C 2.24 1.76 2.72 1.92 3.04 1.92 L 3.04 -1.92 Z " fill="#333333"/>
<path transform="matrix(2.0833333,0,0,2.0833333,475.79167,1361.9165)" d="M 0 0 C 0 1.6 1.28 1.76 2.72 1.76 C 4.17 1.76 5.45 1.44 5.45 0 C 5.45 -.8 4.97 -1.44 4.17 -1.6 L 4.17 -2.73 C 5.61 -2.57 6.41 -1.6 6.41 0 C 6.41 2.24 4.97 2.88 2.72 3.04 C -.64 3.36 -2.09 -.64 .48 -2.41 C .64 -2.57 .96 -2.57 1.28 -2.73 L 1.28 -1.44 C .48 -1.28 0 -.8 0 0 Z " fill="#333333"/>
<path transform="matrix(2.0833333,0,0,2.0833333,473.79167,1347.8958)" d="M 0 0 C 0 -2.4 1.44 -3.2 3.68 -3.2 C 6.09 -3.2 7.37 -2.24 7.37 0 C 7.37 2.24 5.93 3.04 3.68 3.04 C 1.28 3.04 0 2.08 0 0 Z M 6.57 0 C 6.57 -1.6 5.29 -1.92 3.68 -1.92 C 2.08 -1.92 .96 -1.6 .96 0 C .96 1.6 2.08 1.92 3.68 1.92 C 5.29 1.92 6.41 1.6 6.57 0 Z " fill="#333333"/>
<path transform="matrix(2.0833333,0,0,2.0833333,473.79167,1331.2083)" d="M 0 0 C -.16 -3.36 4.32 -2.08 7.21 -2.24 L 7.21 -1.12 L 4.96 -1.12 L 2.72 -1.12 C 1.6 -1.12 .96 -.8 .96 .32 C 1.12 3.04 4.8 1.92 7.21 2.08 L 7.21 3.36 L .16 3.36 L .16 2.24 C .64 2.24 1.12 2.24 1.44 2.24 C .64 1.76 .16 1.12 0 0 Z " fill="#333333"/>
<path transform="matrix(2.0833333,0,0,2.0833333,473.79167,1316.8541)" d="M 0 0 C 0 -2.24 1.44 -3.04 3.68 -3.04 C 6.09 -3.2 7.37 -2.08 7.37 0 C 7.37 2.25 5.93 3.21 3.68 3.21 C 1.28 3.21 0 2.09 0 0 Z M 6.57 0 C 6.57 -1.6 5.29 -1.92 3.68 -1.92 C 2.08 -1.92 .96 -1.6 .96 0 C .96 1.61 2.08 1.93 3.68 1.93 C 5.29 1.93 6.41 1.61 6.57 0 Z " fill="#333333"/>
<path transform="matrix(2.0833333,0,0,2.0833333,475.79167,1292.8333)" d="M 0 0 C .16 2.56 3.84 1.44 6.25 1.76 L 6.25 2.88 L 4 2.88 L 1.76 2.88 C .8 2.88 0 3.04 0 4.16 C .16 6.57 3.84 5.61 6.25 5.77 L 6.25 6.89 L -.8 7.05 L -.8 5.93 C -.32 5.77 .16 5.93 .48 5.77 C -1.12 5.45 -1.44 2.08 .48 1.76 C -.32 1.44 -.8 .8 -.96 -.32 C -.96 -3.52 3.52 -2.08 6.25 -2.4 L 6.25 -1.28 L 4 -1.28 L 1.76 -1.28 C .8 -1.28 0 -.96 0 0 Z " fill="#333333"/>
<path transform="matrix(2.0833333,0,0,2.0833333,471.10417,1284.1459)" d="M 0 0 L -.64 0 L -1.12 0 L -1.12 -1.12 L -.64 -1.12 L 0 -1.12 L 0 0 Z M 8.5 0 L 4.97 0 L 1.45 0 L 1.45 -1.12 L 4.97 -1.12 L 8.5 -1.12 L 8.5 0 Z " fill="#333333"/>
<path transform="matrix(2.0833333,0,0,2.0833333,475.79167,1272.479)" d="M 0 0 C 0 1.6 1.28 1.76 2.72 1.76 C 4.17 1.76 5.45 1.44 5.45 0 C 5.45 -.8 4.97 -1.44 4.17 -1.6 L 4.17 -2.73 C 5.61 -2.57 6.41 -1.6 6.41 0 C 6.41 2.24 4.97 2.88 2.72 3.04 C -.64 3.36 -2.09 -.64 .48 -2.41 C .64 -2.57 .96 -2.57 1.28 -2.73 L 1.28 -1.44 C .48 -1.28 0 -.8 0 0 Z " fill="#333333"/>
<path transform="matrix(2.0833333,0,0,2.0833333,155.91666,1460.354)" d="M 0 0 C -3.52 0 -3.52 -3.68 -3.52 -3.68 L -3.52 -92.58 C -3.52 -96.11 0 -96.11 0 -96.11 L 40.87 -96.11 C 44.56 -96.11 44.56 -92.58 44.56 -92.58 L 44.56 -3.68 C 44.56 0 40.87 0 40.87 0 L 0 0 Z " fill="#ffffff"/>
<path transform="matrix(2.0833333,0,0,2.0833333,155.91666,1460.354)" stroke-width="1.923" stroke-linecap="butt" stroke-miterlimit="4" stroke-linejoin="miter" fill="none" stroke="#5e5e5e" d="M 0 0 C -3.52 0 -3.52 -3.68 -3.52 -3.68 L -3.52 -92.58 C -3.52 -96.11 0 -96.11 0 -96.11 L 40.87 -96.11 C 44.56 -96.11 44.56 -92.58 44.56 -92.58 L 44.56 -3.68 C 44.56 0 40.87 0 40.87 0 L 0 0 Z "/>
<path transform="matrix(2.0833333,0,0,2.0833333,189.64583,1384.6041)" d="M 0 0 C -1.12 .48 -1.76 1.28 -1.76 2.72 C -1.76 4.97 -.16 5.93 1.92 5.93 C 4.17 5.93 5.77 4.97 5.77 2.72 C 5.77 1.12 4.81 .32 3.85 -.16 L 4.33 -1.28 C 5.77 -.48 6.73 .64 6.73 2.72 C 6.73 5.77 4.81 7.05 1.92 7.21 C -1.92 7.53 -3.69 3.52 -2.24 .32 C -1.76 -.32 -1.28 -.8 -.48 -1.12 L 0 0 Z " fill="#333333"/>
<path transform="matrix(2.0833333,0,0,2.0833333,190.31249,1372.9166)" d="M 0 0 C 0 2.73 3.85 1.6 6.25 1.77 L 6.25 3.05 L 1.44 3.05 L -3.36 3.05 L -3.36 1.77 L .48 1.77 C -.32 1.44 -.96 .8 -.96 -.48 C -.96 -3.68 3.37 -2.4 6.25 -2.72 L 6.25 -1.44 L 4.01 -1.44 L 1.76 -1.44 C .64 -1.6 0 -1.12 0 0 Z " fill="#333333"/>
<path transform="matrix(2.0833333,0,0,2.0833333,200.66666,1354.8958)" d="M 0 0 C .8 .48 1.44 1.12 1.44 2.41 C 1.44 3.85 .64 4.65 -.64 4.65 C -3.05 4.65 -3.05 2.25 -3.05 0 C -4.33 -.16 -4.97 .32 -4.97 1.44 C -4.97 2.41 -4.81 3.05 -3.85 3.05 L -4.01 4.33 C -5.29 4.01 -5.93 3.05 -5.93 1.44 C -5.93 -.16 -5.13 -1.28 -3.53 -1.28 L -2.08 -1.28 L -.48 -1.28 C .32 -1.12 .64 -1.44 .48 -2.24 L .96 -2.24 L 1.28 -2.24 C 1.6 -1.12 1.12 0 0 0 Z M -.64 3.37 C 0 3.37 .48 2.89 .48 2.25 C .48 .64 -.48 -.16 -2.24 0 C -2.08 1.6 -2.4 3.37 -.64 3.37 Z " fill="#333333"/>
<path transform="matrix(2.0833333,0,0,2.0833333,190.64583,1341.229)" d="M 0 0 C -.48 3.04 3.37 2.08 6.09 2.24 L 6.09 3.36 L -.96 3.36 L -.96 2.24 C -.48 2.24 .16 2.4 .48 2.24 C -.48 2.08 -1.28 1.44 -.96 0 L -.48 0 L 0 0 Z " fill="#333333"/>
<path transform="matrix(2.0833333,0,0,2.0833333,199.66666,1336.5415)" d="M 0 0 C .96 0 1.12 -.8 .8 -1.44 L 1.28 -1.44 L 1.76 -1.44 C 2.08 -.16 1.92 1.12 .32 1.12 L -2.08 1.12 L -4.49 1.12 L -4.49 1.93 L -4.81 1.93 L -5.29 1.93 L -5.29 1.12 L -6.89 .8 L -6.89 0 L -6.09 0 L -5.29 0 L -5.29 -1.28 L -4.81 -1.28 L -4.49 -1.28 L -4.49 0 L -2.25 0 L 0 0 Z " fill="#333333"/>
<path transform="matrix(2.0833333,0,0,2.0833333,192.31249,1322.8749)" d="M 0 0 C -1.29 .16 -1.29 3.2 0 3.2 C 2.08 2.72 .48 -1.12 3.36 -1.12 C 6.25 -1.28 6.09 4.32 3.68 4.64 L 3.52 3.52 C 4.8 3.36 5.12 0 3.52 0 C 1.44 .32 2.88 4.16 .16 4.32 C -1.93 4.48 -2.25 1.28 -1.45 -.16 C -1.13 -.64 -.65 -.96 -.17 -1.12 L 0 0 Z " fill="#333333"/>
<path transform="matrix(2.0833333,0,0,2.0833333,558.5833,953.77078)" stroke-width="1.923" stroke-linecap="butt" stroke-miterlimit="4" stroke-linejoin="miter" fill="none" stroke="#5e5e5e" d="M 0 0 C 0 -3.36 -2.72 -6.08 -6.09 -6.08 L -30.13 -6.08 C -33.33 -6.08 -36.06 -8.81 -36.06 -12.01 C -36.06 -8.81 -38.78 -6.08 -42.15 -6.08 L -66.19 -6.08 C -69.39 -6.08 -72.12 -3.36 -72.12 0 "/>
<path transform="matrix(2.0833333,0,0,2.0833333,457.75,849.3333)" d="M 0 0 C -1.92 .16 -2.08 4.48 0 4.64 C 2.73 4 .48 -1.29 4.49 -1.45 C 7.38 -1.61 7.7 3.04 6.41 4.96 C 6.09 5.6 5.45 6.08 4.81 6.24 L 4.49 4.96 C 6.57 4.8 6.9 -.16 4.49 -.16 C 1.61 -.16 4.01 5.6 .16 5.76 C -2.88 5.92 -3.04 .48 -1.12 -.81 C -.96 -.97 -.64 -1.13 -.32 -1.29 L 0 0 Z " fill="#333333"/>
<path transform="matrix(2.0833333,0,0,2.0833333,457.08329,837.31246)" d="M 0 0 C 0 -2.4 1.61 -3.2 4.01 -3.04 L 4.01 1.92 C 5.45 1.92 6.41 1.44 6.57 0 C 6.57 -.96 6.09 -1.6 5.45 -1.92 L 5.77 -2.88 C 6.73 -2.56 7.38 -1.6 7.38 0 C 7.38 2.08 6.09 3.2 3.69 3.2 C 1.45 3.2 0 2.24 0 0 Z M 3.05 -1.92 C .8 -2.08 .16 .96 2.09 1.6 C 2.25 1.76 2.73 1.92 3.05 1.92 L 3.05 -1.92 Z " fill="#333333"/>
<path transform="matrix(2.0833333,0,0,2.0833333,468.43754,824.9584)" d="M 0 0 C .96 .16 1.12 -.64 .96 -1.44 L 1.28 -1.44 L 1.77 -1.44 C 2.09 -.16 1.93 1.28 .32 1.28 L -2.08 1.28 L -4.32 1.28 L -4.32 2.08 L -4.81 2.08 L -5.29 2.08 L -5.29 1.12 L -6.89 .8 L -6.89 0 L -6.09 0 L -5.29 0 L -5.29 -1.28 L -4.81 -1.28 L -4.32 -1.28 L -4.32 0 L -2.08 0 L 0 0 Z " fill="#333333"/>
<path transform="matrix(2.0833333,0,0,2.0833333,457.08329,806.2708)" d="M 0 0 C 0 -2.24 1.45 -3.04 3.69 -3.04 C 6.09 -3.04 7.38 -2.08 7.38 .16 C 7.38 2.24 5.93 3.21 3.69 3.21 C 1.29 3.21 0 2.24 0 0 Z M 6.57 .16 C 6.57 -1.44 5.45 -1.92 3.69 -1.92 C 2.09 -1.92 .96 -1.6 .96 0 C .96 1.6 2.09 1.92 3.69 1.92 C 5.29 1.92 6.41 1.6 6.57 .16 Z " fill="#333333"/>
<path transform="matrix(2.0833333,0,0,2.0833333,454.0833,790.9167)" d="M 0 0 C -.32 1.13 .32 1.61 1.6 1.45 L 1.6 0 L 2.08 0 L 2.57 0 L 2.57 1.45 L 5.61 1.45 L 8.66 1.45 L 8.66 2.57 L 5.61 2.57 L 2.57 2.57 L 2.57 3.53 L 2.08 3.53 L 1.6 3.53 L 1.6 2.57 C -.32 2.89 -1.44 1.93 -.8 0 L -.48 0 L 0 0 Z " fill="#333333"/>
<path transform="matrix(2.0833333,0,0,2.0833333,491.8125,880.3541)" d="M 0 0 C 1.6 0 2.4 .8 2.73 2.09 L 6.57 -.48 L 6.57 .96 L 2.73 3.37 L 2.73 6.25 L 4.65 6.25 L 6.57 6.25 L 6.57 7.53 L 2.08 7.53 L -2.56 7.53 C -2.4 4.17 -3.36 -.16 0 0 Z M 1.76 6.25 C 1.76 4.01 2.24 1.12 .16 1.12 C -2.24 1.12 -1.44 4.17 -1.6 6.25 L .16 6.25 L 1.76 6.25 Z " fill="#333333"/>
<path transform="matrix(2.0833333,0,0,2.0833333,490.47914,870.35409)" d="M 0 0 C 0 -2.25 1.6 -3.05 4.01 -3.05 L 4.01 1.92 C 5.45 1.92 6.41 1.44 6.57 0 C 6.57 -.96 6.09 -1.6 5.45 -1.76 L 5.77 -2.89 C 6.73 -2.41 7.37 -1.44 7.37 0 C 7.37 2.08 6.09 3.2 3.69 3.2 C 1.44 3.2 0 2.24 0 0 Z M 3.04 -1.92 C .8 -2.09 .16 .96 2.08 1.76 C 2.24 1.92 2.72 1.92 3.04 1.92 L 3.04 -1.92 Z " fill="#333333"/>
<path transform="matrix(2.0833333,0,0,2.0833333,490.8125,848.99996)" d="M 0 0 C 4.65 .48 10.9 -1.45 9.78 4.16 C 9.46 4.96 8.97 5.6 8.17 5.76 L 8.01 4.64 C 9.62 4 9.14 .8 6.89 1.28 L 6.41 1.28 L 5.77 1.28 C 6.57 1.76 7.21 2.4 7.21 3.52 C 7.21 5.6 5.61 6.08 3.53 6.08 C 1.44 6.08 0 5.44 0 3.36 C -.16 2.4 .48 1.6 1.28 1.28 C .8 1.28 .32 1.28 0 1.12 L 0 0 Z M 6.25 3.2 C 6.25 1.76 5.13 1.28 3.53 1.28 C 2.08 1.28 .8 1.76 .8 3.2 C .8 4.64 2.08 4.8 3.53 4.8 C 5.13 4.8 6.25 4.64 6.25 3.2 Z " fill="#333333"/>
<path transform="matrix(2.0833333,0,0,2.0833333,493.1458,838.64578)" d="M 0 0 C -.64 2.88 3.37 1.92 5.93 2.08 L 5.93 3.2 L -1.12 3.2 L -1.12 2.24 C -.64 2.08 0 2.24 .32 2.08 C -.64 1.92 -1.44 1.28 -1.12 0 L -.64 0 L 0 0 Z " fill="#333333"/>
<path transform="matrix(2.0833333,0,0,2.0833333,490.47914,830.3124)" d="M 0 0 C 0 -2.25 1.6 -3.21 4.01 -3.05 L 4.01 1.92 C 5.45 1.92 6.41 1.44 6.57 0 C 6.57 -.97 6.09 -1.61 5.45 -1.77 L 5.77 -2.89 C 6.73 -2.41 7.37 -1.45 7.37 0 C 7.37 2.08 6.09 3.2 3.69 3.2 C 1.44 3.2 0 2.24 0 0 Z M 3.04 -1.93 C .8 -2.09 .16 .96 2.08 1.76 C 2.24 1.76 2.72 1.92 3.04 1.92 L 3.04 -1.93 Z " fill="#333333"/>
<path transform="matrix(2.0833333,0,0,2.0833333,494.4792,812.2916)" d="M 0 0 C -1.29 .16 -1.29 3.2 0 3.2 C 2.08 2.72 .48 -1.12 3.36 -1.12 C 6.25 -1.28 6.09 4.32 3.68 4.64 L 3.52 3.52 C 4.8 3.36 5.12 0 3.52 0 C 1.44 .32 2.88 4.16 .16 4.32 C -1.93 4.48 -2.25 1.28 -1.45 -.16 C -1.13 -.64 -.65 -.96 -.17 -1.12 L 0 0 Z " fill="#333333"/>
<path transform="matrix(2.0833333,0,0,2.0833333,494.4792,798.2708)" d="M 0 0 C -1.28 .16 -1.44 3.2 0 3.2 C 1.93 2.72 .48 -.96 3.37 -1.12 C 6.25 -1.28 6.09 4.48 3.69 4.64 L 3.53 3.68 C 4.81 3.52 5.13 0 3.53 0 C 1.45 .32 2.89 4.16 .16 4.32 C -1.92 4.48 -2.24 1.28 -1.44 -.16 C -1.12 -.64 -.64 -.96 -.16 -.96 L 0 0 Z " fill="#333333"/>
<path transform="matrix(2.0833333,0,0,2.0833333,490.47914,787.25)" d="M 0 0 C 0 -2.4 1.44 -3.2 3.69 -3.2 C 6.09 -3.2 7.37 -2.24 7.37 0 C 7.37 2.24 5.93 3.05 3.69 3.05 C 1.28 3.05 0 2.08 0 0 Z M 6.57 0 C 6.57 -1.6 5.29 -1.92 3.69 -1.92 C 2.08 -1.92 .96 -1.6 .96 0 C .96 1.44 2.08 1.92 3.69 1.92 C 5.29 1.92 6.41 1.44 6.57 0 Z " fill="#333333"/>
<path transform="matrix(2.0833333,0,0,2.0833333,493.1458,770.56246)" d="M 0 0 C -.64 2.89 3.36 1.92 5.93 2.08 L 5.93 3.37 L -1.12 3.37 L -1.12 2.25 C -.64 2.25 0 2.25 .32 2.25 C -.64 1.92 -1.44 1.28 -1.12 0 L -.64 0 L 0 0 Z " fill="#333333"/>
<path transform="matrix(2.0833333,0,0,2.0833333,494.4792,759.8958)" d="M 0 0 C -1.29 .16 -1.29 3.2 0 3.2 C 2.08 2.56 .48 -1.12 3.36 -1.28 C 6.25 -1.44 6.09 4.33 3.68 4.65 L 3.52 3.52 C 4.8 3.36 5.12 0 3.52 0 C 1.44 .32 2.88 4.17 .16 4.33 C -1.93 4.49 -2.25 1.28 -1.45 -.16 C -1.13 -.64 -.65 -.96 -.17 -1.12 L 0 0 Z " fill="#333333"/>
<path transform="matrix(2.0833333,0,0,2.0833333,251.74999,1360.25)" stroke-width="1.282" stroke-linecap="butt" stroke-miterlimit="4" stroke-linejoin="miter" fill="none" stroke="#5e5e5e" d="M 0 0 L 2.56 0 C 6.25 0 6.25 3.52 6.25 3.52 L 6.25 121.25 C 6.25 124.78 9.78 124.78 9.78 124.78 L 75.16 124.78 "/>
</g>
<path transform="matrix(2.0833333,0,0,2.0833333,0,0)" d="M 120.16 652.32 L 120.96 652.32 L 120.96 653.6 L 120.16 653.6 Z " fill="#5e5e5e"/>
<clipPath id="cp2">
<path transform="matrix(2.0833333,0,0,2.0833333,0,0)" d="M .16 0 L .16 1122.56 L 793.76 1122.56 L 793.76 0 Z " fill-rule="evenodd"/>
</clipPath>
<g clip-path="url(#cp2)">
<path transform="matrix(2.0833333,0,0,2.0833333,0,0)" stroke-width=".16" stroke-linecap="butt" stroke-miterlimit="4" stroke-linejoin="miter" fill="none" stroke="#5e5e5e" d="M 121 652.28 L 121 653.4 L 120.36 653.4 L 120.36 652.28 L 121 652.28 Z "/>
<path transform="matrix(2.0833333,0,0,2.0833333,0,0)" d="M 205.14 777.7 L 196.65 780.58 L 196.65 774.98 L 205.14 777.7 Z " fill="#5e5e5e"/>
<path transform="matrix(2.0833333,0,0,2.0833333,0,0)" stroke-width="1.282" stroke-linecap="butt" stroke-miterlimit="4" stroke-linejoin="miter" fill="none" stroke="#5e5e5e" d="M 205.14 777.7 L 196.65 780.58 L 196.65 774.98 L 205.14 777.7 Z "/>
<path transform="matrix(2.0833333,0,0,2.0833333,294.1458,1627.2083)" d="M 0 0 C -1.6 -3.36 0 -6.57 0 -6.57 L 20.84 -48.05 C 22.44 -51.42 24.04 -48.05 24.04 -48.05 L 44.88 -6.57 C 46.48 -3.36 44.88 0 44.88 0 L 24.04 41.49 C 22.44 44.69 20.84 41.49 20.84 41.49 L 0 0 Z " fill="#ffffff"/>
<path transform="matrix(2.0833333,0,0,2.0833333,294.1458,1627.2083)" stroke-width="1.923" stroke-linecap="butt" stroke-miterlimit="4" stroke-linejoin="miter" fill="none" stroke="#5e5e5e" d="M 0 0 C -1.6 -3.36 0 -6.57 0 -6.57 L 20.84 -48.05 C 22.44 -51.42 24.04 -48.05 24.04 -48.05 L 44.88 -6.57 C 46.48 -3.36 44.88 0 44.88 0 L 24.04 41.49 C 22.44 44.69 20.84 41.49 20.84 41.49 L 0 0 Z "/>
<path transform="matrix(2.0833333,0,0,2.0833333,319.85417,1648.5624)" d="M 0 0 C -1.76 .16 -2.08 4.49 0 4.65 C 2.89 4.01 .65 -1.28 4.49 -1.44 C 7.38 -1.6 7.7 3.05 6.58 4.97 C 6.09 5.61 5.61 6.09 4.81 6.25 L 4.49 4.97 C 6.58 4.81 6.9 -.16 4.49 -.16 C 1.61 -.16 4.01 5.61 .16 5.77 C -2.88 5.93 -3.04 .48 -1.12 -.8 C -.8 -.96 -.48 -1.12 -.16 -1.28 L 0 0 Z " fill="#333333"/>
<path transform="matrix(2.0833333,0,0,2.0833333,319.5208,1635.2291)" d="M 0 0 C 0 -1.93 1.45 -2.57 3.69 -2.57 C 5.77 -2.57 7.22 -1.93 7.38 0 C 7.38 1.28 6.9 1.92 6.09 2.24 L 9.94 2.24 L 9.94 3.52 L .16 3.52 L .16 2.4 L 1.29 2.24 C .48 1.92 0 1.28 0 0 Z M 6.41 .32 C 6.41 -1.12 5.13 -1.28 3.69 -1.28 C 2.09 -1.28 .97 -1.12 .97 .32 C .97 1.92 2.09 2.24 3.69 2.24 C 5.29 2.24 6.41 1.92 6.41 .32 Z " fill="#333333"/>
<path transform="matrix(2.0833333,0,0,2.0833333,319.5208,1621.2083)" d="M 0 0 C 0 -2.4 1.29 -3.2 3.69 -3.2 C 5.93 -3.2 7.38 -2.24 7.38 0 C 7.38 2.24 5.93 3.04 3.69 3.04 C 1.13 3.04 0 2.08 0 0 Z M 6.41 0 C 6.41 -1.6 5.29 -1.92 3.69 -1.92 C 2.09 -1.92 .81 -1.76 .81 -.16 C .81 1.44 2.09 1.92 3.69 1.92 C 5.29 1.92 6.41 1.44 6.41 0 Z " fill="#333333"/>
<path transform="matrix(2.0833333,0,0,2.0833333,330.875,1608.8541)" d="M 0 0 C .8 0 1.12 -.64 .8 -1.44 L 1.29 -1.44 L 1.77 -1.44 C 2.09 -.16 1.93 1.12 .16 1.12 L -2.08 1.12 L -4.48 1.12 L -4.48 1.92 L -4.97 1.92 L -5.29 1.92 L -5.29 1.12 L -6.89 .8 L -6.89 0 L -6.09 0 L -5.29 0 L -5.29 -1.28 L -4.97 -1.28 L -4.48 -1.28 L -4.48 0 L -2.24 0 L 0 0 Z " fill="#333333"/>
<path transform="matrix(2.0833333,0,0,2.0833333,316.5208,1603.854)" d="M 0 0 L -.48 0 L -1.12 0 L -1.12 -1.28 L -.48 -1.28 L 0 -1.28 L 0 0 Z M 8.66 0 L 5.13 0 L 1.61 0 L 1.61 -1.28 L 5.13 -1.28 L 8.66 -1.28 L 8.66 0 Z " fill="#333333"/>
<path transform="matrix(2.0833333,0,0,2.0833333,316.5208,1591.8333)" d="M 0 0 C -.48 1.12 .32 1.44 1.6 1.44 L 1.6 0 L 1.92 0 L 2.41 0 L 2.41 1.44 L 5.45 1.44 L 8.66 1.44 L 8.66 2.57 L 5.45 2.57 L 2.41 2.57 L 2.41 3.53 L 1.92 3.53 L 1.6 3.53 L 1.6 2.57 C -.32 2.73 -1.44 1.93 -.96 0 L -.48 0 L 0 0 Z " fill="#333333"/>
<path transform="matrix(2.0833333,0,0,2.0833333,319.85417,1578.1666)" d="M 0 0 L 8.18 3.04 C 9.14 3.68 10.1 4.48 9.78 6.08 L 9.3 6.08 L 8.82 6.08 C 8.98 4.64 8.02 4.16 7.06 3.68 L 0 6.56 L 0 5.28 L 5.77 3.2 L 0 1.12 L 0 0 Z " fill="#333333"/>
<path transform="matrix(2.0833333,0,0,2.0833333,367.9375,1626.8751)" d="M 0 0 L -2.72 1.12 L -2.72 5.29 L 0 6.25 L 0 7.53 L -9.29 3.85 L -9.29 2.41 L 0 -1.28 L 0 0 Z M -3.68 1.44 L -8.33 3.21 C -6.57 3.69 -5.29 4.33 -3.68 4.81 L -3.68 1.44 Z " fill="#333333"/>
<path transform="matrix(2.0833333,0,0,2.0833333,348.58335,1621.8749)" d="M 0 0 C .16 -3.2 -.48 -7.05 2.88 -7.05 C 5.77 -7.05 5.77 -4.17 5.61 -1.28 L 7.53 -1.28 L 9.29 -1.28 L 9.29 0 L 4.64 0 L 0 0 Z M 4.64 -1.28 C 4.64 -3.36 5.13 -5.77 2.88 -5.77 C .64 -5.77 1.12 -3.36 1.12 -1.28 L 2.88 -1.28 L 4.64 -1.28 Z " fill="#333333"/>
<path transform="matrix(2.0833333,0,0,2.0833333,0,0)" d="M 176.61 769.53 L 171.96 769.53 L 167.32 769.53 L 167.32 768.25 L 171.96 768.25 L 176.61 768.25 L 176.61 769.53 Z " fill="#333333"/>
<path transform="matrix(2.0833333,0,0,2.0833333,0,0)" stroke-width="1.282" stroke-linecap="butt" stroke-miterlimit="4" stroke-linejoin="miter" fill="none" stroke="#5e5e5e" d="M 120.84 652.92 L 196 652.92 "/>
</g>
<path transform="matrix(2.0833333,0,0,2.0833333,0,0)" d="M 120.16 652.32 L 120.96 652.32 L 120.96 653.6 L 120.16 653.6 Z " fill="#5e5e5e"/>
<clipPath id="cp3">
<path transform="matrix(2.0833333,0,0,2.0833333,0,0)" d="M .16 0 L .16 1122.56 L 793.76 1122.56 L 793.76 0 Z " fill-rule="evenodd"/>
</clipPath>
<g clip-path="url(#cp3)">
<path transform="matrix(2.0833333,0,0,2.0833333,0,0)" stroke-width=".16" stroke-linecap="butt" stroke-miterlimit="4" stroke-linejoin="miter" fill="none" stroke="#5e5e5e" d="M 121 652.28 L 121 653.4 L 120.36 653.4 L 120.36 652.28 L 121 652.28 Z "/>
<path transform="matrix(2.0833333,0,0,2.0833333,0,0)" d="M 205.14 652.92 L 196.65 655.64 L 196.65 650.03 L 205.14 652.92 Z " fill="#5e5e5e"/>
<path transform="matrix(2.0833333,0,0,2.0833333,0,0)" stroke-width="1.282" stroke-linecap="butt" stroke-miterlimit="4" stroke-linejoin="miter" fill="none" stroke="#5e5e5e" d="M 205.14 652.92 L 196.65 655.64 L 196.65 650.03 L 205.14 652.92 Z "/>
</g>
<clipPath id="cp4">
<path transform="matrix(2.0833333,0,0,2.0833333,251.74999,1360.25)" d="M -120.68 -652.28 L -120.68 469.64 L 672.92 469.64 L 672.92 -652.28 Z " fill-rule="evenodd"/>
</clipPath>
<g clip-path="url(#cp4)">
<path transform="matrix(2.0833333,0,0,2.0833333,251.74999,1360.25)" stroke-width="1.282" stroke-linecap="butt" stroke-miterlimit="4" stroke-linejoin="miter" fill="none" stroke="#5e5e5e" d="M 0 0 L 2.4 0 C 5.93 0 5.93 -3.69 5.93 -3.69 L 6.09 -121.42 C 5.93 -124.95 9.62 -124.95 9.62 -124.95 L 75.16 -124.95 "/>
</g>
<path transform="matrix(2.0833333,0,0,2.0833333,0,0)" d="M 120.16 652.32 L 120.96 652.32 L 120.96 653.6 L 120.16 653.6 Z " fill="#5e5e5e"/>
<clipPath id="cp5">
<path transform="matrix(2.0833333,0,0,2.0833333,0,0)" d="M .16 0 L .16 1122.56 L 793.76 1122.56 L 793.76 0 Z " fill-rule="evenodd"/>
</clipPath>
<g clip-path="url(#cp5)">
<path transform="matrix(2.0833333,0,0,2.0833333,0,0)" stroke-width=".16" stroke-linecap="butt" stroke-miterlimit="4" stroke-linejoin="miter" fill="none" stroke="#5e5e5e" d="M 121 652.28 L 121 653.4 L 120.36 653.4 L 120.36 652.28 L 121 652.28 Z "/>
<path transform="matrix(2.0833333,0,0,2.0833333,0,0)" d="M 205.14 527.97 L 196.65 530.86 L 196.65 525.25 L 205.14 527.97 Z " fill="#5e5e5e"/>
<path transform="matrix(2.0833333,0,0,2.0833333,0,0)" stroke-width="1.282" stroke-linecap="butt" stroke-miterlimit="4" stroke-linejoin="miter" fill="none" stroke="#5e5e5e" d="M 205.14 527.97 L 196.65 530.86 L 196.65 525.25 L 205.14 527.97 Z "/>
<path transform="matrix(2.0833333,0,0,2.0833333,294.1458,1366.5834)" d="M 0 0 C -1.6 -3.2 0 -6.41 0 -6.41 L 20.84 -48.06 C 22.44 -51.26 24.04 -48.06 24.04 -48.06 L 44.88 -6.41 C 46.48 -3.2 44.88 0 44.88 0 L 24.04 41.65 C 22.44 44.85 20.84 41.65 20.84 41.65 L 0 0 Z " fill="#ffffff"/>
<path transform="matrix(2.0833333,0,0,2.0833333,294.1458,1366.5834)" stroke-width="1.923" stroke-linecap="butt" stroke-miterlimit="4" stroke-linejoin="miter" fill="none" stroke="#5e5e5e" d="M 0 0 C -1.6 -3.2 0 -6.41 0 -6.41 L 20.84 -48.06 C 22.44 -51.26 24.04 -48.06 24.04 -48.06 L 44.88 -6.41 C 46.48 -3.2 44.88 0 44.88 0 L 24.04 41.65 C 22.44 44.85 20.84 41.65 20.84 41.65 L 0 0 Z "/>
<path transform="matrix(2.0833333,0,0,2.0833333,346.91667,1399.2916)" d="M 0 0 L 0 1.6 L -7.86 3.52 L 0 5.6 L 0 7.05 L -9.3 9.77 L -9.3 8.49 L -1.13 6.4 L -3.53 5.76 L -9.3 4.16 L -9.3 3.04 L -1.13 .8 L -9.3 -1.44 L -9.3 -2.73 L 0 0 Z " fill="#333333"/>
<path transform="matrix(2.0833333,0,0,2.0833333,328.875,1391.9375)" d="M 0 0 L -.48 0 L -1.12 0 L -1.12 -1.28 L -.48 -1.28 L 0 -1.28 L 0 0 Z M 8.66 0 L 5.13 0 L 1.61 0 L 1.61 -1.28 L 5.13 -1.28 L 8.66 -1.28 L 8.66 0 Z " fill="#333333"/>
<path transform="matrix(2.0833333,0,0,2.0833333,346.91667,1376.6041)" d="M 0 0 L -3.21 2.4 L -2.57 3.2 L -1.29 3.2 L 0 3.2 L 0 4.48 L -4.81 4.48 L -9.78 4.48 L -9.78 3.2 L -6.74 3.2 L -3.69 3.2 L -7.06 .16 L -7.06 -1.29 L -4.01 1.6 L 0 -1.45 L 0 0 Z " fill="#333333"/>
<path transform="matrix(2.0833333,0,0,2.0833333,328.875,1371.9166)" d="M 0 0 L -.48 0 L -1.12 0 L -1.12 -1.28 L -.48 -1.28 L 0 -1.28 L 0 0 Z M 8.66 0 L 5.13 0 L 1.61 0 L 1.61 -1.28 L 5.13 -1.28 L 8.66 -1.28 L 8.66 0 Z " fill="#333333"/>
<path transform="matrix(2.0833333,0,0,2.0833333,331.875,1358.9166)" d="M 0 0 C 0 -2.09 1.45 -2.73 3.69 -2.73 C 5.77 -2.73 7.22 -2.09 7.38 0 C 7.38 1.12 6.9 1.76 6.09 2.08 L 9.94 2.08 L 9.94 3.36 L .16 3.36 L .16 2.24 L 1.29 2.08 C .48 1.76 0 1.12 0 0 Z M 6.41 .16 C 6.41 -1.29 5.13 -1.45 3.69 -1.45 C 2.09 -1.45 .97 -1.29 .97 .16 C .97 1.76 2.09 2.08 3.69 2.08 C 5.29 2.08 6.41 1.76 6.41 .16 Z " fill="#333333"/>
<path transform="matrix(2.0833333,0,0,2.0833333,331.875,1344.5625)" d="M 0 0 C 0 -2.41 1.61 -3.21 3.85 -3.21 L 3.85 1.92 C 5.45 1.92 6.41 1.28 6.41 -.16 C 6.41 -1.12 5.93 -1.76 5.29 -1.92 L 5.61 -3.05 C 6.73 -2.57 7.38 -1.6 7.38 -.16 C 7.38 2.08 5.93 3.2 3.69 3.04 C 1.29 3.04 0 2.08 0 0 Z M 3.05 -1.92 C .81 -2.25 .16 .8 1.93 1.6 C 2.25 1.76 2.57 1.92 3.05 1.92 L 3.05 -1.92 Z " fill="#333333"/>
<path transform="matrix(2.0833333,0,0,2.0833333,331.875,1330.2083)" d="M 0 0 C 0 -1.12 .48 -1.76 1.13 -2.24 L -2.56 -2.24 L -2.56 -3.36 L 7.22 -3.36 L 7.22 -2.24 C 6.73 -2.24 6.25 -2.24 6.09 -2.24 C 6.9 -1.76 7.38 -1.12 7.38 0 C 7.38 1.92 5.93 2.56 3.69 2.56 C 1.29 2.56 0 1.76 0 0 Z M .81 -.32 C .81 1.12 2.09 1.28 3.69 1.28 C 5.13 1.28 6.41 1.12 6.41 -.32 C 6.41 -1.92 5.13 -2.24 3.53 -2.24 C 2.09 -2.24 .81 -1.92 .81 -.32 Z " fill="#333333"/>
<path transform="matrix(2.0833333,0,0,2.0833333,328.875,1319.5208)" d="M 0 0 L -.48 0 L -1.12 0 L -1.12 -1.28 L -.48 -1.28 L 0 -1.28 L 0 0 Z M 8.66 0 L 5.13 0 L 1.61 0 L 1.61 -1.28 L 5.13 -1.28 L 8.66 -1.28 L 8.66 0 Z " fill="#333333"/>
<path transform="matrix(2.0833333,0,0,2.0833333,343.89585,1304.1875)" d="M 0 0 C .8 .64 1.61 1.28 1.61 2.56 C 1.45 3.84 .8 4.8 -.64 4.8 C -2.88 4.8 -2.88 2.4 -2.88 .16 C -4.16 0 -4.96 .48 -4.96 1.6 C -4.8 2.56 -4.64 3.2 -3.68 3.2 L -3.84 4.32 C -5.29 4.16 -5.77 3.2 -5.77 1.6 C -5.77 -.16 -5.13 -1.13 -3.36 -1.13 L -1.92 -1.13 L -.32 -1.13 C .32 -1.13 .8 -1.29 .64 -2.09 L .96 -2.09 L 1.45 -2.09 C 1.77 -.97 1.29 .16 0 0 Z M -.64 3.52 C .16 3.52 .64 3.04 .64 2.4 C .48 .8 -.48 0 -2.08 .16 C -2.08 1.76 -2.24 3.52 -.64 3.52 Z " fill="#333333"/>
<path transform="matrix(2.0833333,0,0,2.0833333,292.8125,1105.9583)" d="M 0 0 C -1.76 -3.21 0 -6.41 0 -6.41 L 20.68 -48.06 C 22.28 -51.26 23.88 -48.06 23.88 -48.06 L 44.72 -6.41 C 46.32 -3.21 44.72 0 44.72 0 L 24.04 41.64 C 22.28 44.85 20.68 41.64 20.68 41.64 L 0 0 Z " fill="#ffffff"/>
<path transform="matrix(2.0833333,0,0,2.0833333,292.8125,1105.9583)" stroke-width="1.923" stroke-linecap="butt" stroke-miterlimit="4" stroke-linejoin="miter" fill="none" stroke="#5e5e5e" d="M 0 0 C -1.76 -3.21 0 -6.41 0 -6.41 L 20.68 -48.06 C 22.28 -51.26 23.88 -48.06 23.88 -48.06 L 44.72 -6.41 C 46.32 -3.21 44.72 0 44.72 0 L 24.04 41.64 C 22.28 44.85 20.68 41.64 20.68 41.64 L 0 0 Z "/>
<path transform="matrix(2.0833333,0,0,2.0833333,333.2083,1132.3125)" d="M 0 0 C 0 3.04 -1.76 4.49 -4.8 4.65 C -8.81 4.81 -10.57 .96 -8.97 -2.56 C -8.65 -3.2 -8.01 -3.68 -7.37 -3.84 L -7.05 -2.72 C -8.01 -2.24 -8.49 -1.44 -8.49 .16 C -8.49 2.4 -7.05 3.36 -4.8 3.36 C -2.56 3.36 -1.12 2.24 -1.12 0 C -1.12 -1.28 -1.44 -2.4 -2.08 -2.88 L -2.88 -2.88 L -3.68 -2.88 L -3.68 -.16 L -4.32 -.16 L -4.8 -.16 L -4.8 -4.16 L -3.2 -4.16 L -1.6 -4.16 C -.64 -3.2 0 -1.92 0 0 Z " fill="#333333"/>
<path transform="matrix(2.0833333,0,0,2.0833333,317.85417,1113.9584)" d="M 0 0 C 0 -2.4 1.61 -3.2 3.85 -3.04 L 3.85 1.92 C 5.45 1.92 6.41 1.44 6.41 -.16 C 6.41 -1.12 5.93 -1.6 5.45 -1.92 L 5.61 -2.88 C 6.73 -2.56 7.37 -1.6 7.37 -.16 C 7.37 2.08 5.93 3.2 3.69 3.2 C 1.44 3.04 0 2.24 0 0 Z M 3.05 -1.92 C .8 -2.08 .16 .96 1.93 1.6 C 2.25 1.76 2.57 1.92 3.05 1.92 L 3.05 -1.92 Z " fill="#333333"/>
<path transform="matrix(2.0833333,0,0,2.0833333,317.85417,1097.2709)" d="M 0 0 C -.16 -3.36 4.33 -2.08 7.21 -2.24 L 7.21 -1.12 L 4.97 -1.12 L 2.73 -1.12 C 1.61 -1.12 .96 -.8 .96 .32 C .96 3.05 4.65 1.92 7.21 2.24 L 7.21 3.37 L .16 3.37 L .16 2.24 C .48 2.24 .96 2.4 1.28 2.24 C .48 1.76 0 1.12 0 0 Z " fill="#333333"/>
<path transform="matrix(2.0833333,0,0,2.0833333,314.85417,1088.9375)" d="M 0 0 L -.48 0 L -1.12 0 L -1.12 -1.12 L -.48 -1.12 L 0 -1.12 L 0 0 Z M 8.66 0 L 5.13 0 L 1.61 0 L 1.61 -1.12 L 5.13 -1.12 L 8.66 -1.12 L 8.66 0 Z " fill="#333333"/>
<path transform="matrix(2.0833333,0,0,2.0833333,333.2083,1078.2499)" d="M 0 0 C .17 3.21 -4.32 1.92 -7.21 2.24 L -7.21 1.12 L -4.96 1.12 L -2.72 1.12 C -1.6 1.12 -.96 .8 -.96 -.48 C -.96 -3.04 -4.64 -2.08 -7.21 -2.24 L -7.21 -3.36 L -.16 -3.36 L -.16 -2.4 C -.48 -2.24 -1.12 -2.4 -1.44 -2.24 C -.64 -1.92 0 -1.28 0 0 Z " fill="#333333"/>
<path transform="matrix(2.0833333,0,0,2.0833333,321.875,1058.8958)" d="M 0 0 C -1.29 0 -1.45 3.2 0 3.2 C 1.92 2.56 .48 -1.12 3.36 -1.28 C 6.25 -1.44 6.09 4.33 3.52 4.65 L 3.36 3.52 C 4.8 3.36 5.12 0 3.36 -.16 C 1.28 .32 2.88 4.17 0 4.33 C -2.09 4.49 -2.25 1.28 -1.45 -.16 C -1.29 -.64 -.81 -.96 -.16 -1.12 L 0 0 Z " fill="#333333"/>
<path transform="matrix(2.0833333,0,0,2.0833333,366.2708,1105.9583)" d="M 0 0 L -2.72 .96 L -2.72 5.12 L 0 6.24 L 0 7.53 L -9.29 3.84 L -9.29 2.4 L 0 -1.28 L 0 0 Z M -3.69 1.44 L -8.33 3.04 C -6.57 3.52 -5.29 4.32 -3.69 4.8 L -3.69 1.44 Z " fill="#333333"/>
<path transform="matrix(2.0833333,0,0,2.0833333,346.91667,1100.9375)" d="M 0 0 C .16 -3.2 -.48 -7.05 2.88 -7.05 C 5.77 -7.05 5.77 -4.17 5.61 -1.28 L 7.53 -1.28 L 9.29 -1.28 L 9.29 0 L 4.64 0 L 0 0 Z M 4.64 -1.28 C 4.64 -3.36 5.13 -5.77 2.88 -5.77 C .64 -5.77 1.12 -3.36 1.12 -1.28 L 2.88 -1.28 L 4.64 -1.28 Z " fill="#333333"/>
<path transform="matrix(2.0833333,0,0,2.0833333,0,0)" d="M 175.81 519.32 L 171.16 519.32 L 166.52 519.32 L 166.52 518.2 L 171.16 518.2 L 175.81 518.2 L 175.81 519.32 Z " fill="#333333"/>
<path transform="matrix(2.0833333,0,0,2.0833333,536.56246,1620.2084)" stroke-width="1.282" stroke-linecap="butt" stroke-miterlimit="4" stroke-linejoin="miter" fill="none" stroke="#5e5e5e" d="M 0 0 L 45.83 0 C 49.36 0 49.36 -3.53 49.36 -3.53 L 49.36 -121.42 C 49.36 -124.94 53.04 -124.94 53.04 -124.94 L 113.62 -124.94 "/>
</g>
<path transform="matrix(2.0833333,0,0,2.0833333,0,0)" d="M 256.96 777.12 L 257.6 777.12 L 257.6 778.4 L 256.96 778.4 Z " fill="#5e5e5e"/>
<clipPath id="cp6">
<path transform="matrix(2.0833333,0,0,2.0833333,0,0)" d="M .16 0 L .16 1122.56 L 793.76 1122.56 L 793.76 0 Z " fill-rule="evenodd"/>
</clipPath>
<g clip-path="url(#cp6)">
<path transform="matrix(2.0833333,0,0,2.0833333,0,0)" stroke-width=".16" stroke-linecap="butt" stroke-miterlimit="4" stroke-linejoin="miter" fill="none" stroke="#5e5e5e" d="M 257.55 777.22 L 257.55 778.34 L 256.91 778.34 L 256.91 777.22 L 257.55 777.22 Z "/>
<path transform="matrix(2.0833333,0,0,2.0833333,0,0)" d="M 380.31 652.76 L 371.82 655.48 L 371.82 649.87 L 380.31 652.76 Z " fill="#5e5e5e"/>
<path transform="matrix(2.0833333,0,0,2.0833333,0,0)" stroke-width="1.282" stroke-linecap="butt" stroke-miterlimit="4" stroke-linejoin="miter" fill="none" stroke="#5e5e5e" d="M 380.31 652.76 L 371.82 655.48 L 371.82 649.87 L 380.31 652.76 Z "/>
<path transform="matrix(2.0833333,0,0,2.0833333,536.56246,1360.25)" stroke-width="1.282" stroke-linecap="butt" stroke-miterlimit="4" stroke-linejoin="miter" fill="none" stroke="#5e5e5e" d="M 0 0 L 62.02 0 L 62.02 -.16 L 62.18 -.16 L 113.62 -.16 "/>
</g>
<path transform="matrix(2.0833333,0,0,2.0833333,0,0)" d="M 256.96 652.32 L 257.6 652.32 L 257.6 653.6 L 256.96 653.6 Z " fill="#5e5e5e"/>
<clipPath id="cp7">
<path transform="matrix(2.0833333,0,0,2.0833333,0,0)" d="M .16 0 L .16 1122.56 L 793.76 1122.56 L 793.76 0 Z " fill-rule="evenodd"/>
</clipPath>
<g clip-path="url(#cp7)">
<path transform="matrix(2.0833333,0,0,2.0833333,0,0)" stroke-width=".16" stroke-linecap="butt" stroke-miterlimit="4" stroke-linejoin="miter" fill="none" stroke="#5e5e5e" d="M 257.55 652.28 L 257.55 653.4 L 256.91 653.4 L 256.91 652.28 L 257.55 652.28 Z "/>
<path transform="matrix(2.0833333,0,0,2.0833333,0,0)" d="M 380.31 652.76 L 371.82 655.48 L 371.82 649.87 L 380.31 652.76 Z " fill="#5e5e5e"/>
<path transform="matrix(2.0833333,0,0,2.0833333,0,0)" stroke-width="1.282" stroke-linecap="butt" stroke-miterlimit="4" stroke-linejoin="miter" fill="none" stroke="#5e5e5e" d="M 380.31 652.76 L 371.82 655.48 L 371.82 649.87 L 380.31 652.76 Z "/>
<path transform="matrix(2.0833333,0,0,2.0833333,0,0)" stroke-width="1.282" stroke-linecap="butt" stroke-miterlimit="4" stroke-linejoin="miter" fill="none" stroke="#5e5e5e" d="M 306.75 574.91 L 306.75 649.07 C 306.75 652.76 310.27 652.76 310.27 652.76 L 371.17 652.76 "/>
<path transform="matrix(2.0833333,0,0,2.0833333,0,0)" d="M 306.11 574.27 L 306.75 574.27 L 307.23 574.27 L 307.39 574.27 L 307.23 575.07 L 306.11 575.07 L 306.11 574.27 Z " fill="#5e5e5e"/>
<path transform="matrix(2.0833333,0,0,2.0833333,0,0)" stroke-width=".16" stroke-linecap="butt" stroke-miterlimit="4" stroke-linejoin="miter" fill="none" stroke="#5e5e5e" d="M 306.11 574.27 L 306.75 574.27 L 307.23 574.27 L 307.39 574.27 L 307.23 575.07 L 306.11 575.07 L 306.11 574.27 Z "/>
<path transform="matrix(2.0833333,0,0,2.0833333,0,0)" d="M 380.31 652.76 L 371.82 655.48 L 371.82 649.87 L 380.31 652.76 Z " fill="#5e5e5e"/>
<path transform="matrix(2.0833333,0,0,2.0833333,0,0)" stroke-width="1.282" stroke-linecap="butt" stroke-miterlimit="4" stroke-linejoin="miter" fill="none" stroke="#5e5e5e" d="M 380.31 652.76 L 371.82 655.48 L 371.82 649.87 L 380.31 652.76 Z "/>
<path transform="matrix(2.0833333,0,0,2.0833333,536.56246,1099.9374)" stroke-width="1.282" stroke-linecap="butt" stroke-miterlimit="4" stroke-linejoin="miter" fill="none" stroke="#5e5e5e" d="M 0 0 L 12.34 0 L 12.5 0 L 12.18 0 L 13.94 0 "/>
</g>
<path transform="matrix(2.0833333,0,0,2.0833333,0,0)" d="M 256.96 527.36 L 257.6 527.36 L 257.6 528.64 L 256.96 528.64 Z " fill="#5e5e5e"/>
<clipPath id="cp8">
<path transform="matrix(2.0833333,0,0,2.0833333,0,0)" d="M .16 0 L .16 1122.56 L 793.76 1122.56 L 793.76 0 Z " fill-rule="evenodd"/>
</clipPath>
<g clip-path="url(#cp8)">
<path transform="matrix(2.0833333,0,0,2.0833333,0,0)" stroke-width=".16" stroke-linecap="butt" stroke-miterlimit="4" stroke-linejoin="miter" fill="none" stroke="#5e5e5e" d="M 257.55 527.33 L 257.55 528.61 L 256.91 528.61 L 256.91 527.33 L 257.55 527.33 Z "/>
<path transform="matrix(2.0833333,0,0,2.0833333,0,0)" d="M 280.62 527.97 L 272.13 530.86 L 272.13 525.25 L 280.62 527.97 Z " fill="#5e5e5e"/>
<path transform="matrix(2.0833333,0,0,2.0833333,0,0)" stroke-width="1.282" stroke-linecap="butt" stroke-miterlimit="4" stroke-linejoin="miter" fill="none" stroke="#5e5e5e" d="M 280.62 527.97 L 272.13 530.86 L 272.13 525.25 L 280.62 527.97 Z "/>
<path transform="matrix(2.0833333,0,0,2.0833333,592.3125,1105.2915)" d="M 0 0 C -1.6 -3.21 0 -6.41 0 -6.41 L 20.84 -48.38 C 22.44 -51.58 24.04 -48.38 24.04 -48.38 L 44.88 -6.41 C 46.48 -3.21 44.88 0 44.88 0 L 24.04 41.96 C 22.44 45.17 20.84 41.96 20.84 41.96 L 0 0 Z " fill="#ffffff"/>
<path transform="matrix(2.0833333,0,0,2.0833333,592.3125,1105.2915)" stroke-width="1.923" stroke-linecap="butt" stroke-miterlimit="4" stroke-linejoin="miter" fill="none" stroke="#5e5e5e" d="M 0 0 C -1.6 -3.21 0 -6.41 0 -6.41 L 20.84 -48.38 C 22.44 -51.58 24.04 -48.38 24.04 -48.38 L 44.88 -6.41 C 46.48 -3.21 44.88 0 44.88 0 L 24.04 41.96 C 22.44 45.17 20.84 41.96 20.84 41.96 L 0 0 Z "/>
<path transform="matrix(2.0833333,0,0,2.0833333,627.7083,1110.2916)" d="M 0 0 L 0 1.6 L -7.69 3.68 L 0 5.61 L 0 7.21 L -9.14 9.77 L -9.14 8.49 L -1.12 6.41 L -3.37 5.77 L -9.14 4.16 L -9.14 3.04 L -1.12 .8 L -9.14 -1.28 L -9.14 -2.72 L 0 0 Z " fill="#333333"/>
<path transform="matrix(2.0833333,0,0,2.0833333,613.0208,1097.6041)" d="M 0 0 C -.16 -2.24 1.28 -3.2 3.52 -3.2 C 5.93 -3.2 7.21 -2.24 7.21 0 C 7.21 2.24 5.77 3.05 3.52 3.21 C 1.12 3.21 0 2.08 0 0 Z M 6.41 0 C 6.41 -1.6 5.29 -1.92 3.52 -1.92 C 1.92 -1.92 .8 -1.6 .8 0 C .8 1.6 1.92 1.92 3.52 1.92 C 5.13 1.92 6.41 1.6 6.41 0 Z " fill="#333333"/>
<path transform="matrix(2.0833333,0,0,2.0833333,615.3541,1080.9166)" d="M 0 0 C -.64 2.89 3.36 2.09 5.93 2.25 L 5.93 3.37 L -1.12 3.37 L -1.12 2.25 C -.64 2.25 0 2.25 .32 2.25 C -.64 1.93 -1.44 1.28 -1.12 0 L -.64 0 L 0 0 Z " fill="#333333"/>
<path transform="matrix(2.0833333,0,0,2.0833333,613.0208,1074.25)" d="M 0 0 C 0 -1.28 .48 -1.92 1.12 -2.24 L -2.57 -2.24 L -2.57 -3.52 L 7.05 -3.52 L 7.05 -2.4 C 6.73 -2.24 6.25 -2.4 5.93 -2.24 C 6.89 -1.92 7.21 -1.28 7.21 0 C 7.21 1.92 5.77 2.4 3.68 2.56 C 1.12 2.56 0 1.6 0 0 Z M .8 -.48 C .8 1.12 2.08 1.28 3.52 1.28 C 5.13 1.28 6.41 1.12 6.41 -.32 C 6.41 -1.92 5.13 -2.24 3.52 -2.24 C 1.92 -2.24 .8 -1.92 .8 -.48 Z " fill="#333333"/>
<path transform="matrix(2.0833333,0,0,2.0833333,661.1041,1155.3333)" d="M 0 0 L 0 1.29 L -9.14 4.97 L -9.14 3.69 L -1.13 .64 L -9.14 -2.4 L -9.14 -3.84 L 0 0 Z " fill="#333333"/>
<path transform="matrix(2.0833333,0,0,2.0833333,646.06246,1141.3333)" d="M 0 0 C 0 -2.41 1.61 -3.21 4.01 -3.21 L 4.01 1.76 C 5.45 1.76 6.57 1.28 6.57 -.16 C 6.57 -1.13 6.09 -1.77 5.45 -1.93 L 5.77 -3.05 C 6.73 -2.57 7.38 -1.61 7.38 -.16 C 7.38 2.08 6.09 3.2 3.69 3.04 C 1.45 3.04 0 2.08 0 0 Z M 3.05 -1.93 C .8 -2.25 .16 .8 2.09 1.6 C 2.25 1.76 2.73 1.76 3.05 1.76 L 3.05 -1.93 Z " fill="#333333"/>
<path transform="matrix(2.0833333,0,0,2.0833333,648.0833,1125.979)" d="M 0 0 C 0 1.6 1.28 1.76 2.72 1.76 C 4.16 1.76 5.6 1.44 5.6 0 C 5.6 -.8 4.96 -1.44 4.16 -1.6 L 4.16 -2.73 C 5.6 -2.57 6.41 -1.6 6.41 0 C 6.41 2.24 4.96 2.88 2.72 3.04 C -.65 3.36 -2.09 -.64 .48 -2.41 C .64 -2.57 .96 -2.57 1.28 -2.73 L 1.28 -1.44 C .64 -1.28 0 -.96 0 0 Z " fill="#333333"/>
<path transform="matrix(2.0833333,0,0,2.0833333,657.75,1114.9584)" d="M 0 0 C .8 .16 .96 -.64 .8 -1.44 L 1.12 -1.44 L 1.61 -1.44 C 1.93 -.16 1.77 1.28 .16 1.28 L -2.24 1.28 L -4.48 1.28 L -4.48 2.08 L -4.97 2.08 L -5.45 2.08 L -5.45 1.12 L -7.05 .8 L -7.05 0 L -6.25 0 L -5.45 0 L -5.45 -1.28 L -4.97 -1.28 L -4.48 -1.28 L -4.48 0 L -2.24 0 L 0 0 Z " fill="#333333"/>
<path transform="matrix(2.0833333,0,0,2.0833333,646.06246,1104.2916)" d="M 0 0 C 0 -2.41 1.45 -3.21 3.69 -3.21 C 6.09 -3.21 7.38 -2.25 7.38 0 C 7.38 2.08 5.93 3.04 3.69 3.04 C 1.29 3.04 0 2.08 0 0 Z M 6.57 0 C 6.57 -1.61 5.45 -1.93 3.69 -1.93 C 2.09 -1.93 .97 -1.77 .97 -.16 C .97 1.44 2.09 1.92 3.69 1.92 C 5.29 1.92 6.57 1.44 6.57 0 Z " fill="#333333"/>
<path transform="matrix(2.0833333,0,0,2.0833333,648.74996,1087.604)" d="M 0 0 C -.65 2.88 3.36 1.92 5.93 2.08 L 5.93 3.36 L -1.13 3.36 L -1.13 2.24 C -.65 2.24 0 2.24 .32 2.08 C -.65 1.92 -1.45 1.28 -1.13 0 L -.65 0 L 0 0 Z " fill="#333333"/>
<path transform="matrix(2.0833333,0,0,2.0833333,643.3958,1085.2709)" d="M 0 0 L -.64 0 L -1.12 0 L -1.12 -1.12 L -.64 -1.12 L 0 -1.12 L 0 0 Z M 8.5 0 L 4.97 0 L 1.45 0 L 1.45 -1.12 L 4.97 -1.12 L 8.5 -1.12 L 8.5 0 Z " fill="#333333"/>
<path transform="matrix(2.0833333,0,0,2.0833333,661.1041,1080.5834)" d="M 0 0 L -.33 0 L -.81 0 L -6.09 -4.32 L -6.09 -.32 L -6.58 -.32 L -7.06 -.32 L -7.06 -5.6 L -6.58 -5.6 L -6.09 -5.6 L -.81 -1.44 L -.81 -5.92 L -.33 -5.92 L 0 -5.92 L 0 0 Z " fill="#333333"/>
<path transform="matrix(2.0833333,0,0,2.0833333,643.3958,1065.2291)" d="M 0 0 L -.64 0 L -1.12 0 L -1.12 -1.12 L -.64 -1.12 L 0 -1.12 L 0 0 Z M 8.5 0 L 4.97 0 L 1.45 0 L 1.45 -1.12 L 4.97 -1.12 L 8.5 -1.12 L 8.5 0 Z " fill="#333333"/>
<path transform="matrix(2.0833333,0,0,2.0833333,646.06246,1052.2291)" d="M 0 0 C 0 -3.37 4.33 -2.09 7.22 -2.25 L 7.22 -1.12 L 4.97 -1.12 L 2.73 -1.12 C 1.61 -1.12 .97 -.8 .97 .32 C 1.13 3.04 4.81 1.92 7.22 2.08 L 7.22 3.36 L .16 3.36 L .16 2.24 C .64 2.24 1.13 2.24 1.45 2.24 C .64 1.76 .16 1.12 0 0 Z " fill="#333333"/>
<path transform="matrix(2.0833333,0,0,2.0833333,646.39578,1031.8749)" d="M 0 0 C 4.65 .48 10.9 -1.45 9.78 4.16 C 9.46 4.96 8.98 5.6 8.18 5.76 L 8.02 4.64 C 9.78 4 9.14 .8 6.9 1.28 L 6.41 1.28 L 5.77 1.28 C 6.57 1.76 7.22 2.4 7.22 3.52 C 7.22 5.6 5.61 6.08 3.53 6.08 C 1.45 6.08 0 5.44 0 3.36 C -.16 2.4 .48 1.6 1.29 1.28 C .81 1.28 .32 1.28 0 1.12 L 0 0 Z M 6.25 3.2 C 6.25 1.76 5.13 1.28 3.53 1.28 C 2.09 1.28 .81 1.76 .81 3.2 C .81 4.64 2.09 4.8 3.53 4.8 C 5.13 4.8 6.25 4.64 6.25 3.2 Z " fill="#333333"/>
<path transform="matrix(2.0833333,0,0,2.0833333,1176.9584,1437.9999)" stroke-width="1.282" stroke-linecap="butt" stroke-miterlimit="4" stroke-linejoin="miter" fill="none" stroke="#5e5e5e" d="M 0 0 L 0 22.42 L .16 22.42 L 0 22.42 L 0 34.12 "/>
</g>
<path transform="matrix(2.0833333,0,0,2.0833333,0,0)" d="M 564.32 689.6 L 565.6 689.6 L 565.6 690.24 L 564.32 690.24 Z " fill="#5e5e5e"/>
<clipPath id="cp9">
<path transform="matrix(2.0833333,0,0,2.0833333,0,0)" d="M .16 0 L .16 1122.56 L 793.76 1122.56 L 793.76 0 Z " fill-rule="evenodd"/>
</clipPath>
<g clip-path="url(#cp9)">
<path transform="matrix(2.0833333,0,0,2.0833333,0,0)" stroke-width=".16" stroke-linecap="butt" stroke-miterlimit="4" stroke-linejoin="miter" fill="none" stroke="#5e5e5e" d="M 565.58 689.6 L 565.58 690.24 L 564.29 690.24 L 564.29 689.6 L 565.58 689.6 Z "/>
<path transform="matrix(2.0833333,0,0,2.0833333,0,0)" d="M 564.94 733.49 L 562.21 725 L 567.66 725 L 564.94 733.49 Z " fill="#5e5e5e"/>
<path transform="matrix(2.0833333,0,0,2.0833333,0,0)" stroke-width="1.282" stroke-linecap="butt" stroke-miterlimit="4" stroke-linejoin="miter" fill="none" stroke="#5e5e5e" d="M 564.94 733.49 L 562.21 725 L 567.66 725 L 564.94 733.49 Z "/>
<path transform="matrix(2.0833333,0,0,2.0833333,0,0)" stroke-width="1.282" stroke-linecap="butt" stroke-miterlimit="4" stroke-linejoin="miter" fill="none" stroke="#5e5e5e" d="M 586.25 784.11 L 605.32 784.11 "/>
</g>
<path transform="matrix(2.0833333,0,0,2.0833333,0,0)" d="M 585.6 783.52 L 586.24 783.52 L 586.24 784.8 L 585.6 784.8 Z " fill="#5e5e5e"/>
<clipPath id="cp10">
<path transform="matrix(2.0833333,0,0,2.0833333,0,0)" d="M .16 0 L .16 1122.56 L 793.76 1122.56 L 793.76 0 Z " fill-rule="evenodd"/>
</clipPath>
<g clip-path="url(#cp10)">
<path transform="matrix(2.0833333,0,0,2.0833333,0,0)" stroke-width=".16" stroke-linecap="butt" stroke-miterlimit="4" stroke-linejoin="miter" fill="none" stroke="#5e5e5e" d="M 586.25 783.47 L 586.25 784.75 L 585.61 784.75 L 585.61 783.47 L 586.25 783.47 Z "/>
<path transform="matrix(2.0833333,0,0,2.0833333,0,0)" d="M 614.3 784.11 L 605.96 786.99 L 605.96 781.38 L 614.3 784.11 Z " fill="#5e5e5e"/>
<path transform="matrix(2.0833333,0,0,2.0833333,0,0)" stroke-width="1.282" stroke-linecap="butt" stroke-miterlimit="4" stroke-linejoin="miter" fill="none" stroke="#5e5e5e" d="M 614.3 784.11 L 605.96 786.99 L 605.96 781.38 L 614.3 784.11 Z "/>
<path transform="matrix(2.0833333,0,0,2.0833333,657.75,1366.5834)" d="M 0 0 C -1.6 -3.2 0 -6.41 0 -6.41 L 20.84 -48.06 C 22.44 -51.26 24.04 -48.06 24.04 -48.06 L 44.88 -6.41 C 46.48 -3.2 44.88 0 44.88 0 L 24.04 41.65 C 22.44 44.85 20.84 41.65 20.84 41.65 L 0 0 Z " fill="#ffffff"/>
<path transform="matrix(2.0833333,0,0,2.0833333,657.75,1366.5834)" stroke-width="1.923" stroke-linecap="butt" stroke-miterlimit="4" stroke-linejoin="miter" fill="none" stroke="#5e5e5e" d="M 0 0 C -1.6 -3.2 0 -6.41 0 -6.41 L 20.84 -48.06 C 22.44 -51.26 24.04 -48.06 24.04 -48.06 L 44.88 -6.41 C 46.48 -3.2 44.88 0 44.88 0 L 24.04 41.65 C 22.44 44.85 20.84 41.65 20.84 41.65 L 0 0 Z "/>
<path transform="matrix(2.0833333,0,0,2.0833333,710.1666,1421.979)" d="M 0 0 C 0 3.04 -1.76 4.49 -4.64 4.65 C -8.65 4.81 -10.41 .96 -8.81 -2.56 C -8.49 -3.2 -7.85 -3.52 -7.21 -3.84 L -6.89 -2.72 C -7.85 -2.24 -8.33 -1.28 -8.33 .16 C -8.33 2.4 -6.89 3.36 -4.64 3.36 C -2.4 3.36 -.96 2.24 -.96 0 C -.96 -1.28 -1.44 -2.24 -1.92 -2.88 L -2.88 -2.88 L -3.68 -2.88 L -3.68 -.16 L -4.16 -.16 L -4.64 -.16 L -4.64 -4 L -3.04 -4 L -1.44 -4 C -.64 -3.2 0 -1.76 0 0 Z " fill="#333333"/>
<path transform="matrix(2.0833333,0,0,2.0833333,695.1458,1403.6249)" d="M 0 0 C 0 -2.24 1.44 -3.2 3.85 -3.04 L 3.85 1.92 C 5.29 1.92 6.41 1.44 6.41 0 C 6.41 -.96 5.93 -1.6 5.29 -1.92 L 5.61 -2.88 C 6.57 -2.56 7.21 -1.6 7.21 0 C 7.21 2.08 5.93 3.2 3.53 3.2 C 1.28 3.2 0 2.24 0 0 Z M 2.89 -1.92 C .64 -2.08 .16 .96 1.93 1.76 C 2.09 1.76 2.57 1.92 2.89 1.92 L 2.89 -1.92 Z " fill="#333333"/>
<path transform="matrix(2.0833333,0,0,2.0833333,695.1458,1386.9374)" d="M 0 0 C -.16 -3.36 4.17 -1.92 7.21 -2.24 L 7.21 -1.12 L 4.97 -1.12 L 2.73 -1.12 C 1.44 -1.12 .8 -.8 .8 .32 C .96 3.04 4.65 2.08 7.21 2.24 L 7.21 3.36 L .16 3.36 L .16 2.4 C .48 2.24 .96 2.4 1.28 2.24 C .48 1.92 0 1.12 0 0 Z " fill="#333333"/>
<path transform="matrix(2.0833333,0,0,2.0833333,697.4791,1371.5833)" d="M 0 0 C -.64 2.89 3.37 2.08 6.09 2.24 L 6.09 3.37 L -.96 3.37 L -.96 2.24 C -.64 2.24 0 2.24 .49 2.24 C -.64 1.92 -1.44 1.28 -1.12 0 L -.64 0 L 0 0 Z " fill="#333333"/>
<path transform="matrix(2.0833333,0,0,2.0833333,695.1458,1363.5834)" d="M 0 0 C 0 -2.4 1.44 -3.21 3.85 -3.05 L 3.85 1.92 C 5.29 1.92 6.41 1.44 6.41 0 C 6.41 -.96 5.93 -1.6 5.29 -1.92 L 5.61 -2.89 C 6.57 -2.57 7.21 -1.6 7.21 0 C 7.21 2.08 5.93 3.2 3.53 3.2 C 1.28 3.04 0 2.24 0 0 Z M 2.89 -1.92 C .64 -2.08 .16 .96 1.93 1.6 C 2.09 1.76 2.57 1.92 2.89 1.92 L 2.89 -1.92 Z " fill="#333333"/>
<path transform="matrix(2.0833333,0,0,2.0833333,693.1458,1343.2291)" d="M 0 0 L 1.6 0 L 3.37 0 L 3.37 -5.13 L 3.85 -5.13 L 4.33 -5.13 L 4.33 0 L 6.25 0 L 8.17 0 L 8.17 1.28 L 3.53 1.28 L -1.12 1.28 L -1.12 -5.29 L -.64 -5.29 L 0 -5.29 L 0 0 Z " fill="#333333"/>
<path transform="matrix(2.0833333,0,0,2.0833333,692.1459,1329.2084)" d="M 0 0 L -.48 0 L -1.12 0 L -1.12 -1.12 L -.48 -1.12 L 0 -1.12 L 0 0 Z M 8.66 0 L 5.13 0 L 1.61 0 L 1.61 -1.12 L 5.13 -1.12 L 8.66 -1.12 L 8.66 0 Z " fill="#333333"/>
<path transform="matrix(2.0833333,0,0,2.0833333,0,0)" d="M 340.88 635.14 L 335.92 635.14 L 331.11 635.14 L 331.11 634.01 L 335.92 634.01 L 340.88 634.01 L 340.88 635.14 Z " fill="#333333"/>
<path transform="matrix(2.0833333,0,0,2.0833333,706.49996,1314.5208)" d="M 0 0 C .8 0 .96 -.64 .8 -1.45 L 1.12 -1.45 L 1.6 -1.45 C 2.09 -.16 1.76 1.12 .16 1.12 L -2.08 1.12 L -4.49 1.12 L -4.49 1.92 L -4.97 1.92 L -5.29 1.92 L -5.29 1.12 L -6.89 .8 L -6.89 0 L -6.09 0 L -5.29 0 L -5.29 -1.29 L -4.97 -1.29 L -4.49 -1.29 L -4.49 0 L -2.24 0 L 0 0 Z " fill="#333333"/>
<path transform="matrix(2.0833333,0,0,2.0833333,695.1458,1303.5)" d="M 0 0 C 0 -2.24 1.44 -3.2 3.85 -3.04 L 3.85 1.92 C 5.29 1.92 6.41 1.44 6.41 0 C 6.41 -.96 5.93 -1.6 5.29 -1.92 L 5.61 -2.88 C 6.57 -2.56 7.21 -1.6 7.21 0 C 7.21 2.08 5.93 3.2 3.53 3.2 C 1.28 3.2 0 2.24 0 0 Z M 2.89 -1.92 C .64 -2.08 .16 .96 1.93 1.76 C 2.09 1.76 2.57 1.92 2.89 1.92 L 2.89 -1.92 Z " fill="#333333"/>
<path transform="matrix(2.0833333,0,0,2.0833333,697.4791,1287.1666)" d="M 0 0 C -.64 2.88 3.37 1.92 6.09 2.08 L 6.09 3.2 L -.96 3.2 L -.96 2.24 C -.64 2.08 0 2.24 .49 2.08 C -.64 1.92 -1.44 1.28 -1.12 0 L -.64 0 L 0 0 Z " fill="#333333"/>
</g>
</g>
</svg>
